<svg width="12" height="19" viewBox="0 0 12 19" fill="none" xmlns="http://www.w3.org/2000/svg">
<path d="M1.28119 18.233C1.07029 18.022 0.951809 17.7359 0.951809 17.4376C0.951809 17.1393 1.07029 16.8532 1.28119 16.6422L8.36082 9.56262L1.28119 2.48299C1.17374 2.37921 1.08804 2.25507 1.02908 2.11782C0.970119 1.98057 0.939085 1.83294 0.937787 1.68357C0.936489 1.53419 0.964953 1.38605 1.02152 1.24779C1.07809 1.10953 1.16162 0.983925 1.26725 0.878296C1.37288 0.772667 1.49849 0.689131 1.63674 0.632565C1.775 0.575998 1.92314 0.547535 2.07252 0.548832C2.2219 0.550131 2.36952 0.581165 2.50677 0.640125C2.64403 0.699085 2.76817 0.78479 2.87194 0.892239L10.7469 8.76724C10.9578 8.97821 11.0763 9.26431 11.0763 9.56262C11.0763 9.86093 10.9578 10.147 10.7469 10.358L2.87194 18.233C2.66097 18.4439 2.37488 18.5624 2.07657 18.5624C1.77826 18.5624 1.49216 18.4439 1.28119 18.233Z" fill="white"/>
</svg>
