<svg width="11" height="7" viewBox="0 0 11 7" fill="none" xmlns="http://www.w3.org/2000/svg">
<path d="M0.362 0.528721C0.487019 0.40374 0.656557 0.33353 0.833333 0.33353C1.01011 0.33353 1.17965 0.40374 1.30467 0.528721L5.5 4.72405L9.69533 0.528721C9.75683 0.465047 9.8304 0.414259 9.91173 0.37932C9.99307 0.34438 10.0805 0.32599 10.1691 0.32522C10.2576 0.324451 10.3454 0.341319 10.4273 0.37484C10.5092 0.40836 10.5837 0.457862 10.6463 0.520458C10.7089 0.583053 10.7584 0.657487 10.7919 0.739418C10.8254 0.821349 10.8423 0.909135 10.8415 0.997655C10.8407 1.08617 10.8223 1.17365 10.7874 1.25499C10.7525 1.33633 10.7017 1.40989 10.638 1.47139L5.97133 6.13805C5.84632 6.26303 5.67678 6.33324 5.5 6.33324C5.32323 6.33324 5.15369 6.26303 5.02867 6.13805L0.362 1.47139C0.237019 1.34637 0.166809 1.17683 0.166809 1.00005C0.166809 0.823278 0.237019 0.653739 0.362 0.528721Z" fill="#1F1F1F"/>
</svg>
