<svg width="40" height="43" viewBox="0 0 40 43" fill="none" xmlns="http://www.w3.org/2000/svg">
<path d="M38.4679 10.7992C38.0988 10.9903 37.669 11.0271 37.2728 10.9014C36.8767 10.7757 36.5466 10.4979 36.3552 10.129C34.8587 7.17261 32.5936 4.67391 29.7978 2.89541C29.6236 2.78551 29.4727 2.64238 29.3538 2.47417C29.2349 2.30597 29.1502 2.11599 29.1047 1.91508C29.0592 1.71417 29.0538 1.50627 29.0886 1.30324C29.1235 1.10022 29.198 0.906044 29.3079 0.73181C29.4178 0.557576 29.5609 0.406693 29.7291 0.287776C29.8973 0.168859 30.0873 0.0842368 30.2882 0.0387412C30.4891 -0.00675445 30.697 -0.0122327 30.9 0.0226192C31.1031 0.0574712 31.2972 0.131971 31.4715 0.241864C34.7298 2.32812 37.3755 5.24237 39.1381 8.68656C39.3292 9.05562 39.366 9.48547 39.2403 9.88162C39.1146 10.2778 38.8368 10.6078 38.4679 10.7992ZM1.56717 10.9756C1.8544 10.9755 2.13608 10.8964 2.38146 10.7471C2.62684 10.5978 2.82649 10.384 2.95861 10.129C4.45511 7.17261 6.72025 4.67391 9.51604 2.89541C9.86792 2.67347 10.1172 2.32083 10.2091 1.91508C10.301 1.50933 10.2279 1.08369 10.006 0.73181C9.78404 0.379928 9.43141 0.130624 9.02566 0.0387412C8.6199 -0.0531414 8.19427 0.0199242 7.84239 0.241864C4.58406 2.32812 1.93831 5.24237 0.175724 8.68656C0.0519399 8.9255 -0.00826233 9.19227 0.000911496 9.46121C0.0100853 9.73015 0.0883262 9.9922 0.228104 10.2221C0.367882 10.4521 0.564493 10.6422 0.799014 10.7741C1.03354 10.9061 1.29807 10.9755 1.56717 10.9756ZM38.0387 31.3455C38.3164 31.8219 38.4637 32.363 38.4656 32.9144C38.4675 33.4657 38.324 34.0079 38.0495 34.4861C37.775 34.9643 37.3793 35.3617 36.9022 35.6381C36.4251 35.9146 35.8836 36.0604 35.3322 36.0608H27.3363C26.9765 37.8329 26.0151 39.4261 24.615 40.5704C23.2149 41.7148 21.4622 42.3399 19.654 42.3399C17.8457 42.3399 16.0931 41.7148 14.693 40.5704C13.2929 39.4261 12.3315 37.8329 11.9716 36.0608H3.97574C3.42469 36.0597 2.88366 35.9134 2.40714 35.6367C1.93063 35.3599 1.53546 34.9625 1.26144 34.4844C0.987423 34.0063 0.844234 33.4644 0.846299 32.9134C0.848364 32.3623 0.995608 31.8216 1.2732 31.3455C3.03896 28.2981 3.97574 23.965 3.97574 18.8147C3.97574 14.6566 5.62755 10.6688 8.56779 7.72851C11.508 4.78827 15.4959 3.13646 19.654 3.13646C23.8121 3.13646 27.7999 4.78827 30.7402 7.72851C33.6804 10.6688 35.3322 14.6566 35.3322 18.8147C35.3322 23.9631 36.269 28.2961 38.0387 31.3455ZM24.087 36.0608H15.221C15.5458 36.9768 16.1464 37.7697 16.9402 38.3305C17.734 38.8912 18.6821 39.1923 19.654 39.1923C20.6259 39.1923 21.5739 38.8912 22.3678 38.3305C23.1616 37.7697 23.7622 36.9768 24.087 36.0608ZM35.3322 32.9251C33.247 29.3446 32.1966 24.598 32.1966 18.8147C32.1966 15.4882 30.8751 12.2979 28.5229 9.94575C26.1707 7.59356 22.9805 6.27211 19.654 6.27211C16.3275 6.27211 13.1372 7.59356 10.785 9.94575C8.43284 12.2979 7.11139 15.4882 7.11139 18.8147C7.11139 24.6 6.05703 29.3466 3.97574 32.9251H35.3322Z" fill="white"/>
</svg>
