<svg width="14" height="14" viewBox="0 0 14 14" fill="none" xmlns="http://www.w3.org/2000/svg">
<path d="M13.0672 12.1828C13.1252 12.2409 13.1713 12.3098 13.2027 12.3857C13.2342 12.4615 13.2503 12.5429 13.2503 12.625C13.2503 12.7071 13.2342 12.7884 13.2027 12.8643C13.1713 12.9402 13.1252 13.0091 13.0672 13.0672C13.0091 13.1252 12.9402 13.1713 12.8643 13.2027C12.7884 13.2342 12.7071 13.2503 12.625 13.2503C12.5429 13.2503 12.4615 13.2342 12.3857 13.2027C12.3098 13.1713 12.2409 13.1252 12.1828 13.0672L6.99998 7.88357L1.81717 13.0672C1.69989 13.1844 1.54083 13.2503 1.37498 13.2503C1.20913 13.2503 1.05007 13.1844 0.932794 13.0672C0.815518 12.9499 0.749634 12.7908 0.749634 12.625C0.749634 12.4591 0.815518 12.3001 0.932794 12.1828L6.11639 6.99998L0.932794 1.81717C0.815518 1.69989 0.749634 1.54083 0.749634 1.37498C0.749634 1.20913 0.815518 1.05007 0.932794 0.932794C1.05007 0.815518 1.20913 0.749634 1.37498 0.749634C1.54083 0.749634 1.69989 0.815518 1.81717 0.932794L6.99998 6.11639L12.1828 0.932794C12.3001 0.815518 12.4591 0.749634 12.625 0.749634C12.7908 0.749634 12.9499 0.815518 13.0672 0.932794C13.1844 1.05007 13.2503 1.20913 13.2503 1.37498C13.2503 1.54083 13.1844 1.69989 13.0672 1.81717L7.88357 6.99998L13.0672 12.1828Z" fill="black"/>
</svg>
