<svg width="164" height="153" viewBox="0 0 164 153" fill="none" xmlns="http://www.w3.org/2000/svg">
<path d="M81.9999 153C126.89 153 163.281 131.989 163.281 106.07C163.281 80.1515 126.89 59.1404 81.9999 59.1404C37.1094 59.1404 0.718468 80.1515 0.718468 106.07C0.718468 131.989 37.1094 153 81.9999 153Z" fill="#F5F5F5"/>
<path d="M135.593 129.084C148.329 129.084 158.652 123.123 158.652 115.77C158.652 108.417 148.329 102.457 135.593 102.457C122.858 102.457 112.535 108.417 112.535 115.77C112.535 123.123 122.858 129.084 135.593 129.084Z" fill="#E0E0E0"/>
<path d="M77.2361 122.952L51.2236 107.929L80.9567 90.7632L106.973 105.783L77.2361 122.952Z" fill="#E0E0E0"/>
<path d="M6.40468 118.306L39.955 137.676L68.0955 121.433L34.5452 102.063L6.40468 118.306Z" fill="#E0E0E0"/>
<path d="M56.015 27.262V25.3551C56.0006 25.2449 55.9581 25.1403 55.8916 25.0513C55.825 24.9624 55.7366 24.8921 55.635 24.8473L44.121 18.2422C43.8467 18.1043 43.5438 18.0325 43.2367 18.0325C42.9296 18.0325 42.6267 18.1043 42.3523 18.2422L9.26147 37.2421C9.1598 37.2869 9.07142 37.3572 9.00485 37.4462C8.93829 37.5351 8.89579 37.6398 8.88147 37.7499V39.6568C8.89547 39.7671 8.93784 39.8719 9.00444 39.9609C9.07105 40.0499 9.15961 40.1201 9.26147 40.1646L20.7719 46.7593C21.0463 46.8973 21.3492 46.9691 21.6563 46.9691C21.9634 46.9691 22.2663 46.8973 22.5406 46.7593L55.6315 27.7594C55.7334 27.7149 55.8219 27.6447 55.8885 27.5557C55.9551 27.4667 55.9975 27.3619 56.0115 27.2516L56.015 27.262Z" fill="#F0F0F0"/>
<path d="M9.26123 38.2474L20.7717 44.8524C21.0456 44.992 21.3486 45.0647 21.6561 45.0647C21.9635 45.0647 22.2665 44.992 22.5404 44.8524L55.6313 25.8526C56.1184 25.5727 56.1184 25.1202 55.6313 24.8369L44.1208 18.2422C43.8464 18.1043 43.5436 18.0325 43.2365 18.0325C42.9293 18.0325 42.6265 18.1043 42.3521 18.2422L9.26123 37.2421C8.77414 37.515 8.77414 37.9676 9.26123 38.2474Z" fill="#FAFAFA"/>
<path d="M21.6563 45.0668V46.9702C21.3485 46.9747 21.0446 46.9022 20.7719 46.7595L9.26145 40.1717C9.15959 40.1272 9.07103 40.0569 9.00443 39.9679C8.93782 39.8789 8.89545 39.7742 8.88145 39.6639V37.7535C8.88822 37.6763 8.91307 37.6017 8.954 37.5359C8.81927 37.7812 8.91945 38.0644 9.26145 38.2613L20.7719 44.856C21.0438 45.0008 21.3483 45.0733 21.6563 45.0668Z" fill="#E0E0E0"/>
<path d="M27.8397 28.9548L37.5919 34.5131L53.7003 25.2688L43.9516 19.707L27.8397 28.9548Z" fill="#E0E0E0"/>
<path d="M37.7023 34.0917L28.2957 28.6923C28.5401 27.8948 28.5219 27.0398 28.2438 26.2534L37.5918 31.5941C37.5918 31.5941 37.7714 32.1848 37.7023 34.0917Z" fill="white"/>
<path d="M37.1117 30.8442C37.3742 31.0138 37.593 31.243 37.7503 31.5131C37.9075 31.7832 37.9988 32.0867 38.0167 32.3987V34.2158C38.0167 34.7892 37.6091 35.0207 37.1117 34.7374L27.8535 29.4036V28.9546L37.0011 34.1709C37.3017 34.3436 37.5435 34.202 37.5435 33.86V32.1742C37.5331 31.9869 37.4785 31.8048 37.3842 31.6427C37.29 31.4806 37.1587 31.3431 37.0011 31.2415L27.8535 26.0079V25.4966L37.1117 30.8442Z" fill="#EBEBEB"/>
<path d="M27.8535 25.5141L43.9515 16.2664L53.22 21.5863C53.4832 21.7561 53.7024 21.9858 53.8597 22.2566C54.0171 22.5274 54.108 22.8316 54.1251 23.1443V24.9718C54.1374 25.0835 54.1191 25.1965 54.0723 25.2987C54.0254 25.4009 53.9518 25.4885 53.8591 25.5521L37.7507 34.7999C37.8416 34.7348 37.9138 34.6469 37.9599 34.545C38.006 34.4431 38.0244 34.3308 38.0132 34.2195V32.399C37.9964 32.0867 37.9056 31.7828 37.7482 31.5125C37.5908 31.2422 37.3714 31.0132 37.1081 30.8444L27.8535 25.5141Z" fill="#FAFAFA"/>
<path d="M37.7509 31.5043C37.9152 31.7709 38.0069 32.0757 38.0169 32.3887V34.2092C38.0281 34.3205 38.0097 34.4327 37.9636 34.5346C37.9175 34.6365 37.8453 34.7245 37.7544 34.7896L53.8628 25.5418C53.9555 25.4781 54.0292 25.3906 54.076 25.2884C54.1228 25.1862 54.1411 25.0732 54.1288 24.9614V23.1444C54.1187 22.8314 54.0271 22.5266 53.8628 22.26L37.7509 31.5043Z" fill="#F0F0F0"/>
<path d="M17.9253 15.1191L17.832 16.349L28.7207 22.1905L28.966 21.472L17.9253 15.1191Z" fill="#EBEBEB"/>
<path d="M28.821 21.7587L18.2743 15.6719L16.44 16.729L27.1939 23.0196L28.821 21.7587Z" fill="white"/>
<path d="M25.2145 22.3667L24.1781 34.5888C24.1832 34.7268 24.2213 34.8615 24.2892 34.9817C24.3572 35.102 24.4529 35.2041 24.5685 35.2797L30.6864 38.8206C30.7841 38.8746 30.8928 38.9053 31.0042 38.9104L27.2043 23.4307C27.0934 23.4246 26.9851 23.3952 26.8865 23.3443L26.4477 23.0887L25.2145 22.3667Z" fill="#E0E0E0"/>
<path d="M27.6602 23.3307L28.7518 22.3945L29.5498 21.7036C29.6327 21.5723 29.7294 21.4756 29.6776 21.3582L33.4292 36.7239C33.4811 36.831 33.4949 37.0693 33.3463 37.1591L31.4567 38.7759C31.3137 38.8516 31.1513 38.8829 30.9904 38.8657L27.1904 23.386C27.349 23.4134 27.5122 23.3942 27.6602 23.3307Z" fill="#F0F0F0"/>
<path d="M29.5531 21.2578C29.7673 21.3822 29.7155 21.5204 29.5531 21.7069L27.6601 23.3271C27.5396 23.3901 27.4056 23.4229 27.2697 23.4229C27.1338 23.4229 26.9998 23.3901 26.8793 23.3271L25.2143 22.3667C24.9966 22.2424 24.9586 22.0627 25.1279 21.966C25.2391 21.9209 25.3592 21.9018 25.479 21.9102C25.5987 21.9186 25.7149 21.9542 25.8188 22.0144L27.1315 22.7744C27.1717 22.7947 27.2161 22.8053 27.2611 22.8053C27.3061 22.8053 27.3505 22.7947 27.3906 22.7744L28.7724 21.5722C28.845 21.5307 28.845 21.4651 28.7724 21.4237L17.9252 15.1191L18.4434 14.8186L29.5531 21.2578Z" fill="#FAFAFA"/>
<path d="M14.7817 15.71L25.1557 21.7001V41.4392L14.7817 35.4457V15.71Z" fill="#EBEBEB"/>
<path d="M24.8206 22.0283L14.7817 16.2661C14.1678 16.9171 13.3637 17.3572 12.4845 17.5236L22.4404 23.2615C22.4404 23.2615 23.083 23.1095 24.8206 22.0283Z" fill="white"/>
<path d="M21.4768 23.2444C21.776 23.3942 22.106 23.4723 22.4406 23.4723C22.7753 23.4723 23.1053 23.3942 23.4045 23.2444L25.0903 22.2564C25.6223 21.9489 25.6223 21.455 25.0903 21.1475L15.2 15.4683L14.782 15.7101L24.5134 21.3306C24.5851 21.3515 24.6481 21.3952 24.693 21.455C24.7378 21.5147 24.7621 21.5875 24.7621 21.6622C24.7621 21.737 24.7378 21.8097 24.693 21.8695C24.6481 21.9293 24.5851 21.9729 24.5134 21.9939L22.9415 22.8989C22.762 22.9892 22.5639 23.0362 22.3629 23.0362C22.162 23.0362 21.9638 22.9892 21.7843 22.8989L12.0563 17.275L11.5796 17.5479L21.4768 23.2444Z" fill="#FAFAFA"/>
<path d="M11.5829 17.5476V37.2833L21.4767 42.9625C21.7758 43.1124 22.1059 43.1904 22.4405 43.1904C22.7751 43.1904 23.1051 43.1124 23.4043 42.9625L25.097 41.9918C25.207 41.9433 25.302 41.866 25.3719 41.7682C25.4418 41.6703 25.484 41.5555 25.4943 41.4356V21.6999C25.4835 21.8201 25.4402 21.9351 25.369 22.0325C25.2978 22.1299 25.2014 22.206 25.0901 22.2527L23.4043 23.2441C23.1051 23.394 22.7751 23.472 22.4405 23.472C22.1059 23.472 21.7758 23.394 21.4767 23.2441L11.5829 17.5476Z" fill="#EBEBEB"/>
<path d="M22.4404 23.4551C22.7758 23.4617 23.1073 23.3833 23.4042 23.2271L25.09 22.2529C25.2 22.2053 25.295 22.1287 25.3649 22.0314C25.4349 21.9341 25.4772 21.8196 25.4873 21.7002V41.4359C25.477 41.5557 25.4348 41.6706 25.3649 41.7684C25.295 41.8663 25.2 41.9435 25.09 41.9921L23.3973 42.9628C23.1004 43.1189 22.7688 43.1974 22.4335 43.1908L22.4404 23.4551Z" fill="#F0F0F0"/>
<path d="M105.777 95.0986C105.726 94.2246 105.608 93.1779 105.467 91.9619C104.938 87.3467 104.216 81.0249 106.13 74.9691C107.294 71.2831 110.099 66.9131 114.479 65.7006C115.454 65.4311 117.81 65.0339 118.715 67.1239C118.842 67.4258 118.918 67.7469 118.939 68.0739C119.032 69.4004 118.435 70.5715 117.772 71.6389C117.008 72.8791 116.124 74.0571 115.267 75.204C114.459 76.2887 113.619 77.408 112.887 78.5687C112.096 79.8299 111.403 81.1499 110.814 82.5172L110.534 82.3963C111.122 81.0152 111.815 79.6813 112.607 78.4063C113.343 77.2353 114.186 76.1091 115.001 75.0209C115.851 73.8809 116.728 72.7064 117.488 71.48C118.124 70.4437 118.697 69.3348 118.611 68.0946C118.592 67.8021 118.524 67.5148 118.411 67.2448C117.602 65.3759 115.433 65.749 114.538 65.9942C110.275 67.1757 107.536 71.4524 106.396 75.0589C104.503 81.056 105.221 87.3397 105.746 91.9273C105.885 93.1468 106.005 94.2004 106.057 95.0813L105.777 95.0986Z" fill="#FA7F34"/>
<path d="M106.088 100.121C106.065 100.125 106.042 100.125 106.019 100.121C105.953 100.108 105.89 100.08 105.837 100.039C105.784 99.9974 105.741 99.944 105.712 99.883C105.651 99.712 105.651 99.5255 105.712 99.3545C105.76 99.0235 105.76 98.6871 105.712 98.3561C105.712 98.1696 105.681 97.9727 105.681 97.7965V95.6512C105.957 91.7976 107.086 88.0535 108.987 84.69C110.672 81.7571 112.538 79.8053 114.859 78.541C116.111 77.8533 117.483 77.4135 118.901 77.2455C120.153 77.1072 121.411 77.4397 122.432 78.1782C123.485 79.0108 123.958 80.4375 123.561 81.5671C123.281 82.3582 122.642 82.9489 121.989 83.4844C120.825 84.4344 119.554 85.2842 118.328 86.1064C117.309 86.7973 116.255 87.4882 115.27 88.2482C112.258 90.573 109.731 93.4661 107.833 96.7636C107.522 97.299 107.228 97.8517 106.959 98.4045L106.848 98.6221C106.74 98.8195 106.646 99.0237 106.565 99.2336C106.548 99.2785 106.53 99.3717 106.506 99.4788C106.489 99.6758 106.426 99.8661 106.323 100.035C106.258 100.092 106.175 100.123 106.088 100.121ZM119.399 77.5322C119.243 77.5322 119.088 77.5322 118.929 77.553C117.552 77.7135 116.221 78.1406 115.008 78.8104C112.742 80.0437 110.914 81.9609 109.256 84.842C107.381 88.1638 106.266 91.8603 105.992 95.665V97.7896C105.992 97.9554 105.992 98.135 106.023 98.325C106.078 98.6868 106.078 99.0549 106.023 99.4166C105.985 99.5288 105.985 99.6499 106.023 99.7621C106.031 99.7796 106.044 99.7949 106.06 99.8068C106.075 99.8188 106.093 99.8271 106.112 99.8312C106.174 99.7035 106.216 99.5672 106.237 99.427C106.253 99.3311 106.276 99.2365 106.306 99.1437C106.39 98.9219 106.489 98.7061 106.603 98.4977L106.71 98.2836C106.986 97.7239 107.284 97.1678 107.594 96.6254C108.24 95.5076 108.957 94.4322 109.74 93.4058C111.287 91.3837 113.093 89.5731 115.111 88.0202C116.106 87.2602 117.163 86.552 118.186 85.868C119.409 85.0493 120.67 84.2029 121.827 83.2633C122.442 82.7624 123.046 82.1993 123.302 81.4808C123.648 80.4686 123.223 79.187 122.266 78.4304C121.44 77.8145 120.428 77.4977 119.399 77.5322Z" fill="#FA7F34"/>
<path d="M105.829 97.1715H105.791C105.772 97.167 105.753 97.1587 105.737 97.147C105.721 97.1353 105.707 97.1205 105.697 97.1034C105.687 97.0863 105.68 97.0673 105.677 97.0476C105.674 97.0278 105.675 97.0077 105.681 96.9884C108.531 85.623 116.41 80.5518 120.618 79.3461C120.656 79.3354 120.698 79.3403 120.732 79.3597C120.767 79.3791 120.793 79.4115 120.805 79.4498C120.815 79.4887 120.811 79.5303 120.791 79.5658C120.772 79.6012 120.739 79.6278 120.701 79.6398C116.555 80.8247 108.793 85.8303 105.978 97.0609C105.968 97.0928 105.948 97.1208 105.922 97.1407C105.895 97.1606 105.862 97.1714 105.829 97.1715Z" fill="#FA7F34"/>
<path d="M105.812 87.8444C105.771 87.8409 105.734 87.8216 105.707 87.7905C105.681 87.7595 105.667 87.7193 105.67 87.6786C106.579 75.4047 114.607 68.6787 115.519 67.9567C115.535 67.9438 115.552 67.9341 115.572 67.9282C115.591 67.9224 115.611 67.9206 115.631 67.9228C115.651 67.9251 115.671 67.9314 115.688 67.9414C115.706 67.9514 115.721 67.9648 115.733 67.9809C115.746 67.9966 115.755 68.0145 115.761 68.0337C115.766 68.053 115.768 68.0731 115.766 68.093C115.763 68.1129 115.757 68.1322 115.748 68.1497C115.738 68.1672 115.725 68.1827 115.709 68.1951C114.807 68.9102 106.872 75.5567 105.978 87.7028C105.973 87.7431 105.954 87.7802 105.923 87.8065C105.892 87.8329 105.852 87.8464 105.812 87.8444Z" fill="#FA7F34"/>
<path d="M104.855 45.0388L85.6443 33.9533C85.4957 33.8466 85.3216 33.7812 85.1396 33.7636C84.9576 33.746 84.7741 33.7769 84.6079 33.8531L83.2261 34.6511C83.0742 34.7569 82.9533 34.9014 82.8762 35.0697C82.799 35.238 82.7684 35.4238 82.7874 35.608V88.1893C82.8156 88.7016 82.9642 89.2001 83.2211 89.6442C83.4779 90.0884 83.8359 90.4657 84.2659 90.7456L103.473 101.817C103.621 101.925 103.795 101.991 103.977 102.009C104.159 102.027 104.343 101.997 104.509 101.921L105.891 101.12C106.041 101.013 106.16 100.869 106.236 100.701C106.312 100.534 106.342 100.349 106.323 100.166V47.5952C106.296 47.0837 106.149 46.5858 105.894 46.1417C105.639 45.6975 105.283 45.3197 104.855 45.0388Z" fill="#434D56"/>
<path d="M86.926 89.0913L85.5441 89.8893V94.2627C85.5511 94.3908 85.5882 94.5155 85.6525 94.6265C85.7167 94.7376 85.8062 94.8319 85.9138 94.9018L86.5598 95.2749C86.6744 95.3329 86.801 95.3631 86.9294 95.3631C87.0578 95.3631 87.1844 95.3329 87.299 95.2749L87.945 94.9018C88.1745 94.7536 88.3521 94.5374 88.4529 94.2835L89.6999 90.6908L86.926 89.0913Z" fill="#434D56"/>
<path d="M85.5441 94.2628C85.5511 94.3909 85.5882 94.5156 85.6525 94.6266C85.7167 94.7377 85.8062 94.832 85.9138 94.9019L86.5598 95.275C86.6044 95.302 86.6546 95.3186 86.7065 95.3234C86.7585 95.3283 86.8108 95.3213 86.8597 95.303C86.9086 95.2847 86.9527 95.2556 86.9887 95.2179C87.0247 95.1801 87.0517 95.1347 87.0676 95.085L88.3078 91.4888L85.5441 89.8894V94.2628Z" fill="#434D56"/>
<path d="M100.785 97.0676L99.4036 97.8691V102.239C99.4099 102.367 99.4464 102.492 99.51 102.604C99.5736 102.716 99.6626 102.811 99.7698 102.882L100.419 103.255C100.533 103.313 100.659 103.343 100.787 103.343C100.915 103.343 101.041 103.313 101.155 103.255L101.804 102.882C102.034 102.733 102.211 102.517 102.312 102.263L103.556 98.6671L100.785 97.0676Z" fill="#434D56"/>
<path d="M99.4036 102.239C99.4099 102.368 99.4464 102.493 99.51 102.604C99.5736 102.716 99.6626 102.811 99.7698 102.882L100.419 103.255C100.464 103.282 100.514 103.299 100.566 103.303C100.618 103.308 100.67 103.301 100.719 103.283C100.768 103.265 100.812 103.236 100.848 103.198C100.884 103.16 100.911 103.115 100.927 103.065L102.174 99.4688L99.4105 97.8694L99.4036 102.239Z" fill="#434D56"/>
<path d="M84.3558 34.7932L103.563 45.8477C103.993 46.1283 104.351 46.5063 104.608 46.951C104.865 47.3957 105.013 47.8947 105.041 48.4075V100.989C105.078 101.173 105.056 101.365 104.978 101.536C104.9 101.708 104.771 101.851 104.608 101.945C104.445 102.039 104.256 102.079 104.069 102.061C103.881 102.043 103.705 101.966 103.563 101.842L84.3558 90.7668C83.9262 90.4867 83.5688 90.1092 83.3125 89.6651C83.0562 89.2209 82.9082 88.7225 82.8807 88.2105V35.643C82.8437 35.4586 82.8656 35.2673 82.9432 35.096C83.0207 34.9248 83.1501 34.7821 83.313 34.6883C83.4759 34.5944 83.6642 34.554 83.8513 34.5729C84.0384 34.5917 84.2148 34.6688 84.3558 34.7932Z" fill="#434D56"/>
<path d="M56.464 106.664L77.2395 118.659L106.327 101.866L104.941 101.065L84.1658 89.0706L56.464 105.065V106.664Z" fill="#434D56"/>
<path d="M77.2395 118.658V117.059L106.327 100.266V101.866L77.2395 118.658Z" fill="#434D56"/>
<path d="M77.3707 116.33L77.16 116.188C80.846 110.609 80.8218 100.971 80.5212 98.5529C80.4971 98.3906 80.4798 98.2904 80.4763 98.2524L80.7285 98.2109C80.7285 98.2869 80.7561 98.3767 80.77 98.4838C81.0394 100.194 82.5629 109.483 84.3661 112.302L84.1519 112.44C82.7252 110.226 81.5058 104.249 80.8943 100.802C80.9323 104.716 80.3623 111.829 77.3707 116.33Z" fill="#FAFAFA"/>
<path d="M89.503 107.811C89.1886 107.718 81.8443 105.493 81.1672 102.253L81.4194 102.201C82.0619 105.293 89.4995 107.545 89.5755 107.57L89.503 107.811Z" fill="#FAFAFA"/>
<path d="M82.0896 106.499L81.903 105.708C81.8775 105.562 81.8035 105.43 81.6931 105.332C81.5827 105.234 81.4424 105.177 81.295 105.169C81.1734 105.151 81.0493 105.171 80.9393 105.226C80.8294 105.281 80.7389 105.368 80.6801 105.476L80.4418 105.376C80.5217 105.218 80.6487 105.089 80.8052 105.006C80.9618 104.923 81.1401 104.89 81.3158 104.913C81.4429 104.921 81.5668 104.956 81.6794 105.016C81.792 105.075 81.8906 105.158 81.9687 105.259C82.0101 104.931 82.1774 104.632 82.435 104.426C82.5327 104.375 82.642 104.35 82.7521 104.354C82.8623 104.357 82.9697 104.389 83.0638 104.447L82.9498 104.675C82.8922 104.638 82.8261 104.616 82.7577 104.612C82.6894 104.608 82.6211 104.621 82.5594 104.651C82.2658 104.816 82.1518 105.455 82.1345 105.687L82.0896 106.499Z" fill="#FAFAFA"/>
<path d="M82.8116 109.134L82.5836 108.416C82.3245 107.604 81.8927 107.138 81.3814 107.107C81.1678 107.102 80.9576 107.161 80.7766 107.274C80.5956 107.388 80.4516 107.552 80.3623 107.746L80.1309 107.635C80.2401 107.393 80.419 107.188 80.6447 107.047C80.8703 106.906 81.1328 106.836 81.3987 106.844C81.7061 106.861 82.2347 107.027 82.6285 107.829C82.7148 107.196 82.9739 106.181 83.6406 105.756C83.88 105.625 84.149 105.557 84.4219 105.56C84.6948 105.563 84.9623 105.637 85.1986 105.773L85.0915 106.005C84.8937 105.888 84.6691 105.823 84.4392 105.818C84.2094 105.812 83.982 105.866 83.7788 105.973C82.891 106.526 82.8323 108.354 82.8323 108.374L82.8116 109.134Z" fill="#FAFAFA"/>
<path d="M79.6922 110.889L79.4642 110.772C79.9755 109.787 81.0982 109.079 82.0724 109.128C82.2791 109.13 82.4826 109.179 82.6679 109.27C82.8532 109.362 83.0157 109.494 83.1433 109.656C83.2371 109.159 83.4305 108.686 83.7119 108.266C83.9933 107.845 84.3569 107.486 84.7807 107.21C85.2356 106.908 85.7605 106.728 86.305 106.688C86.8495 106.647 87.3953 106.747 87.8898 106.979L87.7896 107.21C87.3341 106.999 86.8322 106.908 86.3316 106.946C85.831 106.983 85.3483 107.148 84.9293 107.425C84.4812 107.715 84.1073 108.106 83.8374 108.567C83.5675 109.027 83.409 109.545 83.3747 110.078V110.731L83.1329 110.123C83.0528 109.906 82.9087 109.72 82.7199 109.588C82.531 109.456 82.3063 109.384 82.0758 109.383C81.1811 109.338 80.162 109.988 79.6922 110.889Z" fill="#FAFAFA"/>
<path d="M78.2897 114.703L78.0652 114.579C78.3761 114.012 80.0308 111.165 81.9895 110.651C82.266 110.572 82.5561 110.552 82.8407 110.593C83.1253 110.634 83.398 110.735 83.6408 110.889L83.5095 111.107C83.2954 110.971 83.0553 110.883 82.8047 110.847C82.5542 110.81 82.2988 110.827 82.0551 110.896C80.6181 111.276 79.1326 113.183 78.2897 114.703Z" fill="#FAFAFA"/>
<path d="M103.556 84.2722V85.8716L77.2395 101.065L56.464 89.0705V87.4711L82.7806 72.2781L103.556 84.2722Z" fill="#434D56"/>
<path d="M103.556 84.2722L77.2395 99.4652L56.464 87.4711L82.7806 72.2781L103.556 84.2722Z" fill="#434D56"/>
<path d="M103.556 66.6816V68.2776L77.2395 83.4741L56.464 71.4765V69.8805L82.7806 54.6841L103.556 66.6816Z" fill="#434D56"/>
<path d="M103.556 66.6816L77.2395 81.8746L56.464 69.8805L82.7806 54.6841L103.556 66.6816Z" fill="#434D56"/>
<path d="M77.1498 61.0123L57.9426 49.9405C57.7944 49.8333 57.6204 49.7672 57.4384 49.749C57.2564 49.7308 57.0728 49.7611 56.9063 49.8369C56.6575 49.9785 55.7732 50.4932 55.5245 50.6349C55.3732 50.7411 55.253 50.8858 55.1765 51.054C55.1 51.2223 55.0698 51.4079 55.0892 51.5918V104.159C55.1174 104.672 55.266 105.17 55.5229 105.614C55.7798 106.058 56.1377 106.436 56.5677 106.716L75.7749 117.791C75.9231 117.898 76.0971 117.964 76.2791 117.982C76.4611 118 76.6447 117.97 76.8112 117.894C77.06 117.749 77.9512 117.238 78.193 117.09C78.345 116.984 78.4662 116.841 78.544 116.673C78.6217 116.505 78.6532 116.32 78.6352 116.136V63.5721C78.6068 63.0585 78.4574 62.559 78.1992 62.1141C77.9411 61.6693 77.5815 61.2918 77.1498 61.0123Z" fill="#434D56"/>
<path opacity="0.2" d="M77.2395 69.082L78.6282 68.2805V63.4788L77.236 64.2802L77.2395 69.082Z" fill="black"/>
<path opacity="0.2" d="M104.945 53.0878L106.333 52.2898V47.488L104.941 48.2895L104.945 53.0878Z" fill="black"/>
<path d="M59.2345 105.065L57.8527 105.863V110.236C57.8597 110.364 57.8968 110.489 57.9611 110.6C58.0253 110.711 58.1148 110.805 58.2224 110.875L58.8684 111.248C58.9829 111.306 59.1096 111.336 59.238 111.336C59.3664 111.336 59.493 111.306 59.6076 111.248L60.2536 110.875C60.4823 110.728 60.6596 110.513 60.7614 110.26L62.0085 106.664L59.2345 105.065Z" fill="#434D56"/>
<path d="M57.8493 110.236C57.8563 110.364 57.8934 110.488 57.9577 110.6C58.0219 110.711 58.1114 110.805 58.219 110.875L58.865 111.248C58.9096 111.275 58.9598 111.291 59.0117 111.296C59.0637 111.301 59.116 111.294 59.1649 111.276C59.2138 111.258 59.2579 111.229 59.2939 111.191C59.3299 111.153 59.3568 111.108 59.3728 111.058L60.6199 107.462L57.8562 105.862L57.8493 110.236Z" fill="#434D56"/>
<path d="M73.0838 113.062L71.702 113.86V118.233C71.7083 118.361 71.7448 118.486 71.8084 118.597C71.8721 118.708 71.9611 118.802 72.0682 118.872L72.7176 119.245C72.8316 119.303 72.9576 119.334 73.0855 119.334C73.2134 119.334 73.3394 119.303 73.4534 119.245L74.1029 118.872C74.3306 118.724 74.5077 118.509 74.6107 118.257L75.8543 114.661L73.0838 113.062Z" fill="#434D56"/>
<path d="M71.702 118.216C71.7083 118.344 71.7448 118.468 71.8084 118.579C71.8721 118.69 71.9611 118.785 72.0682 118.855L72.7176 119.228C72.7622 119.255 72.8124 119.272 72.8644 119.277C72.9163 119.281 72.9687 119.274 73.0175 119.256C73.0664 119.238 73.1105 119.209 73.1465 119.171C73.1825 119.133 73.2095 119.088 73.2254 119.038L74.469 115.442L71.7054 113.843L71.702 118.216Z" fill="#434D56"/>
<path d="M56.5538 50.7424L75.7644 61.8142C76.194 62.095 76.5514 62.4731 76.8077 62.9178C77.064 63.3626 77.2119 63.8614 77.2395 64.374V118.658C77.2395 118.658 76.172 118.026 75.7644 117.791L56.5572 106.716C56.1272 106.436 55.7693 106.059 55.5124 105.615C55.2555 105.17 55.1069 104.672 55.0787 104.16V51.5922C55.0418 51.4079 55.0636 51.2166 55.1412 51.0453C55.2187 50.874 55.3481 50.7314 55.511 50.6375C55.6739 50.5436 55.8622 50.5033 56.0493 50.5221C56.2364 50.5409 56.4128 50.618 56.5538 50.7424Z" fill="#434D56"/>
<path opacity="0.2" d="M75.7644 61.8142L56.5538 50.7424C56.4128 50.618 56.2364 50.5409 56.0493 50.5221C55.8622 50.5033 55.6739 50.5436 55.511 50.6375C55.3481 50.7314 55.2187 50.874 55.1412 51.0453C55.0636 51.2166 55.0418 51.4079 55.0787 51.5922V56.2869L77.2395 69.0687V64.374C77.2119 63.8614 77.064 63.3626 76.8077 62.9178C76.5514 62.4731 76.194 62.095 75.7644 61.8142Z" fill="black"/>
<path d="M102.171 66.8097C102.137 66.8088 102.105 66.795 102.081 66.7713C102.058 66.7475 102.044 66.7155 102.043 66.6819V50.9085L86.9986 59.5932C86.9845 59.6023 86.9687 59.6084 86.9521 59.6111C86.9356 59.6138 86.9186 59.613 86.9024 59.6088C86.8861 59.6045 86.8709 59.597 86.8577 59.5866C86.8446 59.5762 86.8337 59.5631 86.8259 59.5483C86.8172 59.5338 86.8114 59.5177 86.8089 59.501C86.8065 59.4842 86.8074 59.4672 86.8115 59.4508C86.8157 59.4344 86.8231 59.419 86.8333 59.4055C86.8435 59.392 86.8562 59.3806 86.8708 59.3721L102.126 50.5769C102.145 50.5649 102.167 50.5586 102.19 50.5586C102.212 50.5586 102.235 50.5649 102.254 50.5769C102.273 50.5883 102.289 50.6045 102.3 50.6239C102.31 50.6433 102.316 50.6652 102.316 50.6874V66.6819C102.316 66.7002 102.312 66.7184 102.305 66.7351C102.297 66.7519 102.286 66.7668 102.273 66.7789C102.259 66.7911 102.243 66.8001 102.225 66.8054C102.208 66.8107 102.189 66.8121 102.171 66.8097Z" fill="#FAFAFA"/>
<path d="M99.4001 62.8094H99.3621C99.3292 62.8019 99.3006 62.7818 99.2824 62.7533C99.2643 62.7248 99.2582 62.6903 99.2654 62.6574L101.842 51.4958L96.7298 60.3497C96.7219 60.3645 96.7111 60.3775 96.698 60.388C96.6849 60.3985 96.6699 60.4062 96.6537 60.4107C96.6376 60.4152 96.6207 60.4164 96.6041 60.4143C96.5875 60.4121 96.5715 60.4066 96.5571 60.3981C96.5422 60.3898 96.5291 60.3787 96.5186 60.3653C96.5081 60.3519 96.5003 60.3366 96.4958 60.3202C96.4913 60.3038 96.4901 60.2866 96.4924 60.2697C96.4946 60.2529 96.5001 60.2366 96.5087 60.2219L102.036 50.6252C102.052 50.5989 102.076 50.5789 102.105 50.5688C102.134 50.5587 102.166 50.5591 102.195 50.57C102.223 50.5815 102.246 50.6029 102.26 50.6301C102.274 50.6574 102.278 50.6888 102.271 50.7185L99.5072 62.7161C99.501 62.7407 99.4874 62.7628 99.4683 62.7795C99.4492 62.7962 99.4254 62.8066 99.4001 62.8094Z" fill="#FAFAFA"/>
<path d="M93.8626 58.826C93.845 58.8261 93.8276 58.8224 93.8115 58.8153C93.7954 58.8081 93.781 58.7976 93.7693 58.7845C93.7457 58.7606 93.7324 58.7283 93.7324 58.6947C93.7324 58.6611 93.7457 58.6288 93.7693 58.6049L102.081 50.6077C102.105 50.5841 102.137 50.5708 102.171 50.5708C102.204 50.5708 102.237 50.5841 102.261 50.6077C102.284 50.6322 102.298 50.665 102.298 50.6992C102.298 50.7334 102.284 50.7663 102.261 50.7908L93.9489 58.7845C93.938 58.7968 93.9247 58.8068 93.9099 58.8139C93.8951 58.821 93.879 58.8251 93.8626 58.826Z" fill="#FAFAFA"/>
<path d="M102.171 64.2566C102.137 64.2558 102.105 64.242 102.081 64.2182C102.057 64.1944 102.044 64.1624 102.043 64.1288C102.043 62.0354 99.7075 61.8937 99.6073 61.8903C99.5885 61.8889 99.5701 61.8836 99.5535 61.8747C99.5368 61.8657 99.5222 61.8534 99.5106 61.8385C99.4997 61.8238 99.4923 61.8069 99.4887 61.789C99.4851 61.7711 99.4855 61.7526 99.4899 61.7348C99.5751 61.3072 99.5462 60.8646 99.4061 60.4516C99.266 60.0387 99.0197 59.6699 98.6919 59.3823C98.572 59.2628 98.4281 59.1701 98.2696 59.1106C98.1112 59.051 97.9419 59.0259 97.773 59.0369C97.6829 59.0521 97.5971 59.0865 97.5214 59.1378C97.4457 59.189 97.3819 59.2559 97.3343 59.3339C97.3198 59.3591 97.2973 59.3787 97.2703 59.3894C97.2433 59.4 97.2135 59.4012 97.1857 59.3927C97.1581 59.3842 97.1342 59.3665 97.1179 59.3427C97.1016 59.3189 97.0938 59.2902 97.0959 59.2614C97.0959 59.1819 97.2375 57.32 95.6001 57.1369C95.579 57.1343 95.5589 57.1267 95.5415 57.1146C95.5241 57.1026 95.5098 57.0865 95.4999 57.0678C95.4905 57.0496 95.4856 57.0295 95.4856 57.009C95.4856 56.9886 95.4905 56.9685 95.4999 56.9503C95.4999 56.9503 96.2253 55.5927 95.9455 54.926C95.9132 54.8477 95.8629 54.7781 95.7987 54.7229C95.7345 54.6677 95.6582 54.6284 95.5759 54.6082C95.5595 54.6038 95.5442 54.5962 95.5309 54.5857C95.5176 54.5753 95.5065 54.5622 95.4985 54.5473C95.4904 54.5324 95.4854 54.5161 95.4839 54.4992C95.4823 54.4823 95.4843 54.4653 95.4895 54.4492C95.4999 54.4172 95.5222 54.3904 95.5517 54.3743C95.5813 54.3583 95.6159 54.3542 95.6484 54.3629C95.7675 54.3935 95.8776 54.4516 95.97 54.5327C96.0624 54.6137 96.1345 54.7153 96.1804 54.8292C96.4464 55.4614 95.9974 56.5081 95.8039 56.902C97.0752 57.1472 97.3101 58.3459 97.3446 58.9401C97.4582 58.8595 97.5878 58.8041 97.7246 58.7778C97.9322 58.7577 98.1417 58.7848 98.3374 58.8572C98.533 58.9296 98.7097 59.0453 98.8542 59.1958C99.1975 59.4985 99.4602 59.8817 99.6188 60.311C99.7774 60.7403 99.8268 61.2022 99.7628 61.6554C100.322 61.7279 102.298 62.1183 102.295 64.1357C102.293 64.1678 102.279 64.1981 102.256 64.2205C102.233 64.2429 102.203 64.2558 102.171 64.2566Z" fill="#FAFAFA"/>
<path d="M102.171 60.8089C102.139 60.809 102.107 60.797 102.084 60.7752C102.06 60.7534 102.045 60.7235 102.043 60.6915C101.988 59.9591 101.563 59.0126 101.027 58.7777C100.921 58.7303 100.804 58.7148 100.689 58.7332C100.574 58.7516 100.467 58.8031 100.381 58.8813C100.36 58.8948 100.336 58.902 100.31 58.902C100.285 58.902 100.261 58.8948 100.24 58.8813C100.218 58.8692 100.2 58.8511 100.188 58.8289C100.176 58.8068 100.172 58.7818 100.174 58.7569C100.174 58.7569 100.288 57.4615 99.7041 56.926C99.5775 56.8203 99.4274 56.7463 99.2664 56.7102C99.1053 56.6742 98.938 56.6771 98.7783 56.7188C98.7563 56.7234 98.7334 56.7221 98.7122 56.7148C98.6909 56.7075 98.6719 56.6945 98.6574 56.6773C98.6426 56.6599 98.6326 56.639 98.6284 56.6166C98.6242 56.5942 98.6258 56.5711 98.6333 56.5495C98.7507 56.2282 98.9787 55.3266 98.6712 55.0053C98.5262 54.8568 98.2602 54.843 97.8767 54.9673C97.8505 54.976 97.8223 54.9759 97.7961 54.9672C97.77 54.9585 97.7474 54.9416 97.7316 54.919C97.7159 54.8967 97.7074 54.8702 97.7074 54.843C97.7074 54.8157 97.7159 54.7892 97.7316 54.767C97.9458 54.4975 98.4743 53.7099 98.3431 53.3333C98.3214 53.2813 98.2863 53.236 98.2414 53.202C98.1965 53.168 98.1434 53.1466 98.0874 53.1399C98.0711 53.1358 98.0557 53.1286 98.0421 53.1186C98.0286 53.1086 98.0171 53.096 98.0085 53.0815C97.9998 53.0671 97.9941 53.0511 97.9916 53.0344C97.9892 53.0177 97.99 53.0008 97.9942 52.9844C97.9974 52.968 98.0039 52.9523 98.0135 52.9385C98.023 52.9247 98.0353 52.9131 98.0496 52.9043C98.0639 52.8956 98.0799 52.8899 98.0965 52.8876C98.1131 52.8853 98.13 52.8865 98.1462 52.8911C98.2431 52.9053 98.3347 52.9446 98.4117 53.0052C98.4887 53.0659 98.5484 53.1456 98.5849 53.2366C98.7265 53.6477 98.3811 54.273 98.1393 54.6184C98.2638 54.5888 98.3937 54.59 98.5177 54.6219C98.6417 54.6538 98.7561 54.7154 98.8509 54.8015C99.2309 55.1953 99.0478 56.0279 98.9338 56.4182C99.1023 56.3981 99.2731 56.4138 99.435 56.4644C99.597 56.5151 99.7464 56.5994 99.8734 56.7119C100.388 57.1817 100.443 58.0937 100.437 58.5117C100.545 58.4608 100.663 58.4345 100.782 58.4345C100.901 58.4345 101.019 58.4608 101.127 58.5117C101.78 58.7984 102.233 59.8175 102.298 60.6431C102.3 60.6597 102.298 60.6764 102.293 60.6923C102.288 60.7081 102.279 60.7228 102.268 60.7354C102.257 60.7479 102.244 60.7582 102.229 60.7655C102.214 60.7728 102.198 60.777 102.181 60.7778L102.171 60.8089Z" fill="#FAFAFA"/>
<path d="M109.612 45.0909C109.595 44.9075 109.53 44.7318 109.423 44.5818C109.317 44.4318 109.172 44.313 109.004 44.2376L88.4113 32.3472C87.9535 32.1156 87.4476 31.9949 86.9345 31.9949C86.4214 31.9949 85.9155 32.1156 85.4577 32.3472L53.7866 50.6354C53.6186 50.7108 53.4737 50.8296 53.3669 50.9796C53.26 51.1295 53.195 51.3053 53.1786 51.4887V53.0881C53.195 53.2716 53.26 53.4473 53.3669 53.5973C53.4737 53.7472 53.6186 53.866 53.7866 53.9414L74.379 65.8284C74.8364 66.0616 75.3425 66.1832 75.8559 66.1832C76.3692 66.1832 76.8753 66.0616 77.3327 65.8284L109.004 47.5436C109.172 47.4682 109.317 47.3495 109.423 47.1995C109.53 47.0495 109.595 46.8738 109.612 46.6904V45.0909Z" fill="#434D56"/>
<path d="M74.3792 64.229L53.7868 52.342C52.9715 51.8687 52.9715 51.1052 53.7868 50.6354L85.4578 32.3472C85.9157 32.1156 86.4216 31.9949 86.9346 31.9949C87.4477 31.9949 87.9536 32.1156 88.4114 32.3472L109.004 44.2376C109.823 44.7109 109.823 45.4709 109.004 45.9442L77.3328 64.229C76.8754 64.4622 76.3694 64.5838 75.856 64.5838C75.3426 64.5838 74.8365 64.4622 74.3792 64.229Z" fill="#434D56"/>
<path opacity="0.1" d="M104.941 49.8857L95.248 61.8833L78.6283 71.48L78.6248 65.0822L104.941 49.8857Z" fill="black"/>
<path opacity="0.1" d="M103.556 68.2776L95.248 79.4737L78.6283 89.0738V82.6726L103.556 68.2776Z" fill="black"/>
<path opacity="0.1" d="M103.556 85.8713L95.248 97.0674L78.6283 106.668V100.266L103.556 85.8713Z" fill="black"/>
<path d="M65.4319 120.814L39.9514 135.527L11.2581 118.921L36.7387 104.212L65.4319 120.814Z" fill="#FA7F34"/>
<path opacity="0.5" d="M65.4319 120.814L39.9514 135.527L11.2581 118.921L36.7387 104.212L65.4319 120.814Z" fill="black"/>
<path d="M36.7387 84.2693V104.212L11.2581 118.922V98.9821L36.7387 84.2693Z" fill="#FA7F34"/>
<path opacity="0.23" d="M36.7387 84.2693V104.212L11.2581 118.922V98.9821L36.7387 84.2693Z" fill="black"/>
<path d="M39.9514 115.584V135.527L11.2581 118.921V98.9819L39.9514 115.584Z" fill="#FA7F34"/>
<path opacity="0.38" d="M39.9514 115.584V135.527L11.2581 118.921V98.9819L39.9514 115.584Z" fill="black"/>
<path d="M65.4318 100.872V120.815L36.7385 104.212V84.2693L65.4318 100.872Z" fill="#FA7F34"/>
<path opacity="0.4" d="M65.4318 100.872V120.815L36.7385 104.212V84.2693L65.4318 100.872Z" fill="black"/>
<path d="M65.4319 120.815V100.872L39.9514 115.585V135.528L65.4319 120.815Z" fill="#FA7F34"/>
<path opacity="0.23" d="M65.4319 120.815V100.872L39.9514 115.585V135.528L65.4319 120.815Z" fill="black"/>
<path d="M36.7385 84.2692L36.7731 73.2285L65.3972 89.8517L65.4318 100.872L36.7385 84.2692Z" fill="#FA7F34"/>
<path opacity="0.2" d="M36.7385 84.2692L36.7731 73.2285L65.3972 89.8517L65.4318 100.872L36.7385 84.2692Z" fill="black"/>
<path d="M39.9514 115.584L42.3419 105.925L67.591 91.3474L65.4319 100.872L39.9514 115.584Z" fill="#FA7F34"/>
<path opacity="0.3" d="M39.9514 115.584L42.3419 105.925L67.591 91.3474L65.4319 100.872L39.9514 115.584Z" fill="black"/>
<path d="M11.258 98.9819L8.21806 88.9637L33.6986 74.2544L36.7386 84.2691L11.258 98.9819Z" fill="#FA7F34"/>
<path opacity="0.1" d="M11.258 98.9819L8.21806 88.9637L33.6986 74.2544L36.7386 84.2691L11.258 98.9819Z" fill="black"/>
<path d="M11.2582 98.9819L5.26118 90.7014L33.9579 107.304L39.9515 115.584L11.2582 98.9819Z" fill="#FA7F34"/>
<path opacity="0.45" d="M11.2582 98.9819L5.26118 90.7014L33.9579 107.304L39.9515 115.584L11.2582 98.9819Z" fill="black"/>
<g opacity="0.7">
<path d="M47.4547 129.596C47.4132 129.596 47.3733 129.58 47.3436 129.551C47.3139 129.522 47.2967 129.482 47.2958 129.441V125.931C47.2967 125.889 47.3137 125.849 47.3434 125.819C47.373 125.79 47.4129 125.773 47.4547 125.772C47.4963 125.773 47.5358 125.79 47.5649 125.82C47.5939 125.849 47.6102 125.889 47.6102 125.931V129.441C47.6102 129.482 47.5938 129.521 47.5647 129.551C47.5355 129.58 47.496 129.596 47.4547 129.596Z" fill="white"/>
<path d="M46.9952 127.147C46.9746 127.15 46.9536 127.15 46.933 127.147C46.8953 127.13 46.8657 127.099 46.8503 127.06C46.8349 127.021 46.8348 126.979 46.8501 126.94L47.4097 125.651L48.0316 126.37C48.0538 126.402 48.0634 126.441 48.0585 126.48C48.0537 126.519 48.0347 126.555 48.0051 126.58C47.9756 126.606 47.9377 126.62 47.8986 126.619C47.8595 126.619 47.822 126.604 47.7932 126.577L47.4996 126.232L47.1541 127.061C47.1392 127.089 47.1161 127.113 47.0878 127.128C47.0595 127.144 47.0273 127.15 46.9952 127.147Z" fill="white"/>
<path d="M48.9021 128.771C48.8606 128.77 48.8211 128.753 48.792 128.723C48.7629 128.693 48.7467 128.654 48.7467 128.612V125.106C48.7467 125.064 48.7631 125.025 48.7922 124.996C48.8214 124.967 48.8609 124.95 48.9021 124.95C48.9434 124.95 48.9829 124.967 49.0121 124.996C49.0412 125.025 49.0576 125.064 49.0576 125.106V128.609C49.0581 128.629 49.0544 128.65 49.0468 128.67C49.0393 128.689 49.0279 128.707 49.0135 128.722C48.9991 128.737 48.9818 128.749 48.9627 128.757C48.9436 128.766 48.923 128.77 48.9021 128.771Z" fill="white"/>
<path d="M48.4427 126.321C48.4221 126.325 48.4011 126.325 48.3805 126.321C48.3616 126.313 48.3444 126.301 48.3301 126.286C48.3159 126.271 48.3047 126.254 48.2973 126.234C48.2899 126.215 48.2864 126.195 48.2871 126.174C48.2877 126.153 48.2925 126.133 48.3011 126.114L48.8573 124.808L49.4791 125.523C49.5078 125.553 49.5238 125.593 49.5238 125.634C49.5238 125.675 49.5078 125.715 49.4791 125.745C49.4646 125.759 49.4474 125.771 49.4284 125.779C49.4094 125.787 49.3891 125.791 49.3685 125.791C49.348 125.791 49.3276 125.787 49.3086 125.779C49.2896 125.771 49.2724 125.759 49.258 125.745L48.9643 125.399L48.6189 126.228C48.6046 126.261 48.5793 126.289 48.5472 126.306C48.5152 126.323 48.4783 126.328 48.4427 126.321Z" fill="white"/>
</g>
<g opacity="0.7">
<path d="M43.2782 131.976C43.2192 131.977 43.1609 131.963 43.1089 131.935C43.0465 131.895 42.9959 131.839 42.9625 131.773C42.9291 131.706 42.914 131.632 42.9189 131.558V131.127C42.9198 131.085 42.937 131.045 42.9667 131.016C42.9964 130.987 43.0363 130.971 43.0779 130.971C43.1191 130.971 43.1586 130.987 43.1878 131.017C43.2169 131.046 43.2333 131.085 43.2333 131.127V131.558C43.2333 131.621 43.2333 131.655 43.2644 131.662C43.2955 131.669 43.3128 131.662 43.3646 131.634C43.4618 131.545 43.5384 131.435 43.5891 131.312C43.6398 131.19 43.6634 131.058 43.6582 130.926V129.13C43.6582 129.089 43.6746 129.049 43.7037 129.02C43.7329 128.991 43.7724 128.974 43.8137 128.974C43.8549 128.974 43.8944 128.991 43.9236 129.02C43.9527 129.049 43.9691 129.089 43.9691 129.13V130.926C43.9768 131.113 43.9405 131.298 43.8631 131.468C43.7857 131.638 43.6693 131.787 43.5235 131.904C43.4497 131.949 43.365 131.974 43.2782 131.976Z" fill="white"/>
<path d="M41.6304 130.529V130.259C41.6714 129.567 41.8737 128.895 42.2209 128.295C42.5682 127.695 43.0509 127.185 43.6305 126.805C44.1971 126.48 44.736 126.432 45.1505 126.673C45.3716 126.825 45.5479 127.033 45.6609 127.276C45.774 127.519 45.8196 127.788 45.793 128.055V128.145L41.6304 130.529ZM44.5701 126.818C44.2935 126.831 44.0248 126.914 43.7894 127.06C43.2928 127.387 42.8722 127.817 42.5563 128.321C42.2404 128.824 42.0365 129.39 41.9585 129.979L45.4718 127.948C45.4868 127.748 45.4498 127.547 45.3645 127.366C45.2791 127.184 45.1483 127.028 44.9847 126.912C44.8571 126.845 44.7141 126.813 44.5701 126.818Z" fill="white"/>
</g>
<path opacity="0.7" d="M5.26118 90.7014L33.9579 107.304L39.9515 115.584L33.6401 107.597L5.26118 90.7014Z" fill="white"/>
<path opacity="0.7" d="M65.4319 100.872L39.9514 115.585V135.528L40.4281 115.985L65.4319 100.872Z" fill="white"/>
<path d="M28.0402 92.8948C30.669 92.5148 33.0699 90.8221 34.6037 88.6941C35.319 87.6998 35.8459 86.5828 36.1583 85.3985C36.49 84.291 36.5446 83.1189 36.3172 81.9854C35.8439 80.0889 34.089 78.9661 32.2339 78.7312C31.2926 78.6074 30.3354 78.7008 29.4358 79.0042C28.5029 79.3243 27.6936 79.9282 27.1213 80.7314C26.7624 81.1593 26.5366 81.6829 26.4718 82.2376C26.4663 82.4548 26.5429 82.6662 26.6863 82.8295C26.8297 82.9928 27.0295 83.096 27.2456 83.1185C27.8019 83.1653 28.3578 83.0242 28.8243 82.7178C29.3933 82.3987 29.8943 81.9716 30.2994 81.4603C31.1683 80.388 31.8185 79.1556 32.2132 77.8331C32.4902 76.6982 32.4902 75.5134 32.2132 74.3785C32.0028 73.1914 31.4602 72.0882 30.6483 71.1969C29.7176 70.3505 28.5364 69.8302 27.2836 69.7149C26.0368 69.5436 24.7672 69.6618 23.5735 70.0604C23.0491 70.2194 22.5633 70.4852 22.1467 70.8411C21.8497 71.1175 21.5111 71.5735 21.632 72.0226C21.7529 72.4716 22.4093 72.672 22.8549 72.6133C23.5145 72.4897 24.1186 72.1622 24.5822 71.6771C25.0988 71.1685 25.5377 70.5865 25.8845 69.9498C26.1422 69.4923 26.2768 68.9757 26.2749 68.4506C26.23 66.2604 23.8084 64.8441 21.9118 64.4433C21.3999 64.3364 20.8755 64.3015 20.3538 64.3397C20.1777 64.3397 20.2848 64.6299 20.4264 64.6195C21.447 64.5731 22.4612 64.8022 23.3627 65.2828C24.2522 65.6916 24.9992 66.3568 25.508 67.1931C25.7347 67.6054 25.8466 68.0711 25.8321 68.5414C25.8175 69.0117 25.6769 69.4695 25.4251 69.8669C25.0868 70.4561 24.6657 70.9936 24.1745 71.4629C23.7635 71.836 23.1382 72.2678 22.5613 72.2264C22.466 72.2262 22.3728 72.1992 22.2921 72.1485C22.2115 72.0978 22.1468 72.0254 22.1053 71.9397C22.0879 71.8262 22.0972 71.7103 22.1326 71.6011C22.168 71.4919 22.2285 71.3926 22.3091 71.3109C22.6142 70.9824 22.9914 70.7293 23.4111 70.5717C24.4475 70.1408 25.5697 69.9564 26.6894 70.0328C27.8434 70.0536 28.9657 70.4141 29.916 71.0691C30.7438 71.7565 31.3318 72.6892 31.5949 73.7325C31.9282 74.7925 32.0318 75.9112 31.8989 77.0143C31.6937 78.1243 31.2672 79.1817 30.6449 80.1234C30.0058 81.1805 29.2043 82.1961 28.0022 82.6107C27.7051 82.7178 27.0833 82.8732 26.9658 82.4414C26.8483 82.0096 27.1869 81.4776 27.4045 81.1425C27.8858 80.3851 28.5874 79.7932 29.4151 79.4463C30.2137 79.1262 31.0758 78.9961 31.9334 79.0663C33.5605 79.1872 35.2117 80.037 35.7783 81.6538C36.0625 82.62 36.0934 83.643 35.8681 84.6247C35.6649 85.7006 35.2781 86.7336 34.7247 87.6785C33.5342 89.686 31.7313 91.2588 29.5809 92.1659C29.0696 92.387 28.5445 92.5735 28.0091 92.7462C27.9538 92.767 27.978 92.9052 28.0402 92.8948Z" fill="#E0E0E0"/>
<path d="M17.0582 62.9027C15.6764 62.8025 13.7729 63.8907 14.45 64.6852C15.1271 65.4798 16.9235 64.1947 16.9235 64.1947C16.9235 64.1947 16.7542 65.801 17.3414 65.9841C17.9287 66.1672 18.7233 64.6334 18.136 63.6523C18.4192 63.764 18.726 63.8023 19.028 63.7636C19.33 63.725 19.6173 63.6106 19.8633 63.4312C20.6992 62.8163 19.8149 62.236 18.6369 62.3396C18.6369 62.3396 19.4798 59.576 17.7767 60.1045C16.9235 60.3636 16.6229 61.362 17.0582 62.9027Z" fill="#FA7F34"/>
<path opacity="0.65" d="M17.0582 62.9027C15.6764 62.8025 13.7729 63.8907 14.45 64.6852C15.1271 65.4798 16.9235 64.1947 16.9235 64.1947C16.9235 64.1947 16.7542 65.801 17.3414 65.9841C17.9287 66.1672 18.7233 64.6334 18.136 63.6523C18.4192 63.764 18.726 63.8023 19.028 63.7636C19.33 63.725 19.6173 63.6106 19.8633 63.4312C20.6992 62.8163 19.8149 62.236 18.6369 62.3396C18.6369 62.3396 19.4798 59.576 17.7767 60.1045C16.9235 60.3636 16.6229 61.362 17.0582 62.9027Z" fill="white"/>
<path d="M18.3433 63.4898C18.2668 63.415 18.1861 63.3446 18.1015 63.2791C17.9806 63.1858 17.8528 63.096 17.7318 63.0062C17.6141 62.9206 17.4906 62.8433 17.3622 62.7747C17.2883 62.7337 17.2122 62.6968 17.1342 62.6642C17.0266 62.6136 16.9068 62.5945 16.7888 62.6089C16.7578 62.6098 16.7277 62.619 16.7015 62.6355C16.6753 62.652 16.6541 62.6752 16.6399 62.7028C16.6258 62.7303 16.6194 62.7611 16.6212 62.792C16.6231 62.8229 16.6332 62.8527 16.6506 62.8784C16.7455 62.9813 16.8641 63.0595 16.996 63.1064L17.1826 63.2066C17.3104 63.2826 17.4244 63.3689 17.528 63.4553C17.6317 63.5416 17.7698 63.6246 17.8735 63.7109C18.0517 63.8554 18.2509 63.9719 18.4642 64.0564C18.4738 64.0615 18.4844 64.0642 18.4953 64.0642C18.5061 64.0642 18.5168 64.0615 18.5264 64.0564C18.7026 63.9182 18.4435 63.59 18.3433 63.4898Z" fill="#434D56"/>
<path d="M128.477 24.8993C126.967 26.9306 124.946 38.099 124.183 41.6814C120.511 41.5743 115.598 41.4016 113.74 41.2081C111.667 40.9905 107.242 40.5656 105.069 40.8627C99.6765 41.5536 99.8873 45.0979 100.019 46.0237C100.16 47.0808 100.917 47.5644 103.819 46.9046C104.468 46.7619 105.13 46.6844 105.795 46.6732C106.074 46.6732 106.665 46.5315 106.886 46.7699C107.232 47.1153 106.233 47.6957 105.985 47.8546C105.601 48.1033 105.2 48.4177 105.121 48.8668C105.098 48.9489 105.099 49.0358 105.124 49.1173C105.15 49.1987 105.197 49.2712 105.263 49.3262C105.403 49.3836 105.561 49.3836 105.701 49.3262C107.026 49.0119 108.303 48.5253 109.501 47.8788C109.953 47.6065 110.428 47.3753 110.921 47.1879C111.671 46.9461 112.444 47.0877 113.198 47.0877C114.818 47.0877 123.381 47.9375 127.188 48.3244C129.824 48.5904 130.104 45.9892 131.013 43.3534C132.128 40.0854 134.771 22.8991 134.771 22.8991C132.104 22.5122 130.273 22.488 128.477 24.8993Z" fill="#FFC0BF"/>
<path d="M134.812 22.6295C133.538 22.3946 130.667 22.0388 129.105 23.7833C127.544 25.5278 127.174 27.3587 126.487 30.0014C125.8 32.6441 124.58 37.3768 124.58 37.3768C124.58 37.3768 126.594 40.2683 132.899 39.4496L134.812 22.6295Z" fill="#434D56"/>
<path d="M150.645 113.974L146.212 113.978L144.938 104.357L150.531 104.136L150.645 113.974Z" fill="#FFC0BF"/>
<path d="M135.928 109.169C135.175 110.478 132.754 110.371 130.746 109.908L130.515 100.45L136.44 100.215L135.928 109.169Z" fill="#FFC0BF"/>
<path d="M150.344 53.1817C150.503 57.2753 149.96 81.4811 149.96 81.4811C150.109 82.6556 151.325 84.7042 151.577 88.9429C151.947 95.0988 150.693 108.226 150.693 108.226C150.693 108.226 148.154 109.553 145.418 108.537C145.418 108.537 142.633 89.5371 141.618 83.464C140.74 78.1786 139.614 64.0012 139.614 64.0012L137.427 82.172C137.828 84.3228 137.994 86.5109 137.921 88.6976C137.832 91.5234 136.222 105.245 136.222 105.245C134.385 105.846 132.412 105.892 130.549 105.379C130.549 105.379 129.23 84.0858 129.078 81.5053C128.905 78.562 129.023 52.5806 129.023 52.5806L150.344 53.1817Z" fill="#FA7F34"/>
<path opacity="0.2" d="M139.621 64.008C139.621 64.008 135.749 62.9095 133.109 60.5535C133.109 60.5535 134.346 62.6642 137.849 64.5365L137.649 80.3962L139.621 64.008Z" fill="black"/>
<path d="M141.162 121.999C141.02 122.144 141.103 123.101 141.276 123.35C141.449 123.599 142.506 124.442 144.34 124.504C146.091 124.559 147.639 124.262 148.637 123.571C149.636 122.88 150.106 122.144 150.164 121.153C150.223 120.162 150.075 119.198 150.51 118.414C150.921 117.692 151.588 116.866 151.722 116.476C152.023 115.629 151.657 114.451 151.657 114.451L141.162 121.999Z" fill="#434D56"/>
<path d="M145.584 113.132C145.586 113.509 145.532 113.885 145.425 114.247C145.05 115.425 144.486 116.535 143.756 117.533C143.252 118.179 142.616 118.721 142.081 119.346C141.508 119.939 141.156 120.711 141.086 121.533C141.065 122.915 142.571 123.312 143.722 123.471C144.969 123.635 146.237 123.517 147.432 123.126C148.061 122.936 148.623 122.568 149.048 122.067C149.473 121.565 149.745 120.952 149.829 120.3C149.878 119.916 149.829 119.529 149.871 119.146C149.988 118.265 150.321 117.427 150.841 116.707C151.142 116.29 151.399 115.843 151.608 115.374C151.93 114.51 151.608 113.567 151.346 112.734C151.121 112.012 150.866 111.194 150.613 111.273C150.613 111.657 150.613 111.691 150.368 111.964C150.023 112.309 150.04 112.79 149.677 113.09C149.782 112.771 149.854 112.443 149.891 112.109C149.908 111.973 149.875 111.835 149.798 111.722C149.673 111.621 149.527 111.55 149.37 111.515C148.823 111.353 148.262 111.248 147.694 111.201C147.154 111.129 146.606 111.147 146.071 111.252C145.913 111.289 145.771 111.378 145.67 111.505C145.581 111.646 145.537 111.811 145.542 111.978C145.542 112.202 145.58 112.765 145.584 113.132Z" fill="#434D56"/>
<path d="M144.271 116.769C144.768 116.368 145.908 116.316 146.537 116.361C147.174 116.39 147.793 116.58 148.337 116.914C148.417 116.967 148.514 116.991 148.609 116.979C148.705 116.968 148.793 116.923 148.859 116.852C148.897 116.811 148.926 116.763 148.943 116.711C148.961 116.658 148.967 116.602 148.961 116.547C148.956 116.492 148.938 116.439 148.909 116.391C148.881 116.344 148.842 116.303 148.796 116.271C148.196 115.864 147.493 115.635 146.769 115.608C145.228 115.563 144.789 115.843 144.789 115.843C144.789 115.843 144.102 116.32 144.271 116.769Z" fill="#F5F5F5"/>
<path d="M143.152 118.22C143.777 117.816 145.038 117.819 145.663 117.874C146.29 117.914 146.895 118.118 147.418 118.465C147.497 118.518 147.593 118.541 147.688 118.53C147.784 118.518 147.871 118.473 147.936 118.403C147.975 118.363 148.005 118.315 148.023 118.263C148.041 118.21 148.048 118.154 148.042 118.099C148.037 118.044 148.019 117.99 147.991 117.942C147.962 117.895 147.923 117.854 147.877 117.823C147.267 117.394 146.549 117.145 145.805 117.104C144.26 117.056 143.874 117.384 143.874 117.384C143.698 117.46 143.542 117.575 143.417 117.719C143.292 117.864 143.201 118.035 143.152 118.22Z" fill="#F5F5F5"/>
<path d="M147.321 114.116C146.669 114.027 146.005 114.108 145.394 114.351C145.131 114.513 144.969 114.948 145.145 115.041C145.68 114.801 146.266 114.697 146.851 114.737C147.43 114.771 147.997 114.905 148.53 115.131C148.665 115.183 148.824 115.259 148.962 115.328C149.006 115.351 149.055 115.364 149.104 115.368C149.154 115.371 149.204 115.364 149.25 115.348C149.297 115.331 149.34 115.305 149.377 115.272C149.413 115.238 149.443 115.197 149.463 115.152C149.496 115.073 149.498 114.986 149.47 114.905C149.442 114.825 149.386 114.758 149.311 114.717C148.699 114.376 148.02 114.171 147.321 114.116Z" fill="#F5F5F5"/>
<path d="M120.618 115.069C120.461 115.464 120.461 115.904 120.618 116.299C120.77 116.669 122.601 117.816 125.143 117.767C127.034 117.721 128.878 117.17 130.484 116.171C131.482 115.577 132.494 115.505 133.752 115.48C135.009 115.456 136.688 114.921 136.992 114.347C137.296 113.774 137.027 112.748 137.027 112.748L120.618 115.069Z" fill="#434D56"/>
<path d="M131.223 107.642L131.026 107.59C130.914 107.556 130.797 107.546 130.681 107.559C130.556 107.589 130.444 107.657 130.36 107.753C130.098 108.059 129.867 108.39 129.669 108.741C129.099 109.58 127.941 110.247 126.698 110.844C125.848 111.249 125.022 111.556 124.148 111.898C123.274 112.24 122.076 112.433 121.385 112.862C120.348 113.487 120.151 115.162 121.25 115.881C122.203 116.503 124.746 117.246 127.468 116.61C128.957 116.264 130.664 114.772 132.598 114.713C133.831 114.675 136.167 114.441 136.999 113.546C137.313 113.149 136.999 111.819 136.719 110.672C136.429 109.421 136.56 107.563 136.001 107.563L135.966 108.188C135.914 108.374 135.476 108.557 135.338 108.703L134.84 109.228C134.636 109.471 134.388 109.672 134.108 109.822C133.614 110.043 133.037 109.912 132.508 109.773C132.488 109.773 132.774 108.813 132.805 108.72C132.836 108.647 132.846 108.567 132.833 108.488C132.806 108.412 132.754 108.347 132.684 108.305C132.248 107.986 131.751 107.76 131.223 107.642Z" fill="#434D56"/>
<path d="M127.879 110.229C127.976 110.065 128.112 109.927 128.276 109.829C128.439 109.73 128.625 109.675 128.815 109.666C129.379 109.59 130.342 110.046 130.933 110.582C130.989 110.632 131.031 110.695 131.057 110.765C131.083 110.836 131.091 110.911 131.081 110.986C131.07 111.06 131.042 111.131 130.998 111.191C130.955 111.252 130.897 111.302 130.829 111.335C130.745 111.377 130.65 111.391 130.557 111.376C130.464 111.361 130.378 111.318 130.311 111.252C129.664 110.608 128.792 110.241 127.879 110.229Z" fill="#F5F5F5"/>
<path d="M126.104 111.117C126.233 110.952 126.401 110.82 126.592 110.733C126.783 110.646 126.992 110.606 127.202 110.616C127.202 110.616 128.66 110.727 129.52 111.611C129.573 111.66 129.614 111.72 129.639 111.788C129.663 111.856 129.671 111.928 129.661 111.999C129.652 112.071 129.625 112.139 129.584 112.197C129.543 112.256 129.487 112.304 129.424 112.337C129.342 112.377 129.25 112.39 129.161 112.376C129.071 112.362 128.988 112.32 128.923 112.257C128.569 111.868 128.131 111.563 127.643 111.366C127.155 111.168 126.629 111.083 126.104 111.117Z" fill="#F5F5F5"/>
<path d="M124.152 111.898C124.299 111.746 124.476 111.628 124.673 111.551C124.87 111.474 125.081 111.441 125.292 111.453C126.118 111.544 126.894 111.893 127.51 112.451C127.563 112.5 127.603 112.561 127.628 112.629C127.652 112.696 127.66 112.769 127.651 112.841C127.641 112.912 127.615 112.98 127.573 113.039C127.532 113.098 127.477 113.147 127.413 113.18C127.331 113.22 127.239 113.234 127.149 113.219C127.059 113.204 126.976 113.161 126.912 113.097C126.577 112.696 126.153 112.38 125.673 112.171C125.194 111.963 124.673 111.87 124.152 111.898Z" fill="#F5F5F5"/>
<path d="M142.198 22.7057C143.829 22.8923 145.757 22.9924 147.314 23.1963C149.322 23.4588 150.886 25.535 151.377 28.7477C151.916 32.2851 149.65 42.4276 149.65 42.4276L150.372 54.3871C147.432 56.5531 134.913 57.6897 128.674 53.185C128.674 53.185 128.819 32.8309 129.306 29.6942C129.976 25.3933 131.033 22.723 135.87 22.4155L142.198 22.7057Z" fill="#434D56"/>
<path d="M153.346 48.6148C152.817 49.4992 152.285 50.3835 151.74 51.2575C151.539 51.5822 151.335 51.9035 151.125 52.2213C151.011 52.3769 150.877 52.5173 150.727 52.6393C150.465 52.819 149.919 52.705 149.601 52.7153C148.04 52.7683 146.483 52.8834 144.931 53.0608C144.801 53.0567 144.672 53.0812 144.552 53.1325C144.433 53.1839 144.326 53.2608 144.24 53.3579C144.176 53.4916 144.163 53.6441 144.204 53.7866C144.245 53.9291 144.336 54.0518 144.461 54.1317C144.715 54.2843 145.004 54.3699 145.3 54.3804L146.648 54.5393C146.84 54.5458 147.026 54.6056 147.187 54.712C147.677 55.1093 146.741 55.586 146.461 55.7795C145.898 56.1704 145.298 56.5037 144.668 56.7744C141.86 57.9558 141.518 58.8126 142.036 59.7867C142.485 60.6331 144.426 63.7111 149.36 61.0614C151.346 59.994 154.369 56.6224 155.747 54.9918C157.73 52.6393 161.084 47.3919 161.084 47.3919C162.991 44.7734 163.236 43.699 163.281 42.6108C163.326 41.5227 157.409 33.1524 155.398 30.2126C153.387 27.2728 152.431 23.6973 147.314 23.2068C147.314 23.2068 145.366 29.3835 148.593 33.3804L156.044 43.775C156.044 43.775 154.071 47.4023 153.346 48.6148Z" fill="#FFC0BF"/>
<path d="M158.752 34.1987C157.795 32.8169 156.797 31.3937 155.833 29.9842C151.774 24.0597 152.116 22.975 146.264 22.8921C145.746 23.6866 145.439 27.1066 146.219 30.5404C146.872 33.4249 149.328 35.4596 149.328 35.4596L152.258 39.4289C152.258 39.4289 154.051 39.3736 156.199 37.7984C157.44 36.9291 158.342 35.6573 158.752 34.1987Z" fill="#434D56"/>
<path d="M146.057 7.13616C145.763 6.69781 145.355 6.34744 144.878 6.12236C144.4 5.89728 143.871 5.80591 143.345 5.85799L143.041 13.2749L142.544 16.0143L142.63 19.0646C142.919 19.0238 143.193 18.9105 143.426 18.7353C143.659 18.5602 143.844 18.3288 143.964 18.0628C144.42 17.1854 145.691 12.9432 145.691 12.9432C146.831 9.4576 146.589 7.88234 146.057 7.13616Z" fill="#434D56"/>
<path d="M142.696 13.3096C142.824 12.8589 143.071 12.4508 143.411 12.1282C143.836 11.6722 145.528 11.1782 146.299 12.6153C147.069 14.0524 145.77 15.9489 144.768 16.5293C143.487 17.2754 142.734 16.2598 142.734 16.2598L142.765 23.0894C142.167 24.4712 139.469 25.701 137.863 25.5076C136.584 25.3452 135.406 24.3399 136.55 22.8752L136.457 20.9269C136.457 20.9269 134.747 21.2723 133.9 21.186C132.494 21.0409 131.558 19.9803 131.061 18.488C130.259 16.0905 129.903 14.1422 130.242 9.33349C130.615 4.06534 136.705 3.70952 140.101 5.61642C143.497 7.52332 142.696 13.3096 142.696 13.3096Z" fill="#FFC0BF"/>
<path d="M128.304 3.86134C128.149 2.71098 128.546 1.47772 129.752 1.07008C130.194 0.885003 130.68 0.828637 131.153 0.907477C131.626 0.986317 132.067 1.19716 132.425 1.51572C132.577 1.10988 132.838 0.754241 133.18 0.488769C133.522 0.223296 133.932 0.0585108 134.362 0.0129323C134.793 -0.0326463 135.228 0.0427882 135.618 0.230759C136.008 0.418729 136.338 0.711786 136.571 1.07699C136.891 0.590587 137.386 0.245597 137.953 0.11318C138.302 0.0351103 138.664 0.0279024 139.016 0.0919829C139.369 0.156063 139.705 0.290132 140.005 0.486267C140.495 0.848992 141.072 1.52263 140.927 2.39662C141.898 2.00626 142.91 2.33098 143.632 3.1877C144.062 3.71233 144.305 4.36491 144.323 5.04278C144.348 5.39488 144.297 5.74825 144.174 6.07914C144.036 6.3935 143.753 6.60077 143.67 6.95659C143.549 7.26965 143.487 7.60219 143.487 7.93767C143.566 8.51803 143.694 9.09839 143.77 9.66494C143.852 10.2292 143.899 10.798 143.912 11.368C143.894 11.5021 143.847 11.6307 143.775 11.7451C143.703 11.8596 143.607 11.9572 143.494 12.0313C143.171 12.3133 142.921 12.6688 142.765 13.0676C142.644 13.3164 142.526 13.9313 142.288 14.104C141.552 14.6187 141.469 12.9536 141.435 12.6324C141.387 11.895 141.387 11.1554 141.435 10.418C141.064 10.4132 140.698 10.3308 140.36 10.1762C140.023 10.0215 139.722 9.79791 139.476 9.51985C139.221 9.20737 139.053 8.83323 138.989 8.43513C138.949 8.20704 138.931 7.97574 138.934 7.74422C138.454 8.53876 137.338 8.86349 136.543 8.78058C135.21 8.65967 134.75 8.08967 134.536 7.67168C134.452 8.08369 134.271 8.46972 134.008 8.79785C133.667 9.11794 133.257 9.35446 132.809 9.48876C132.423 9.5918 132.016 9.58772 131.632 9.47695C131.248 9.36619 130.901 9.15291 130.629 8.86003C130.087 9.6373 128.712 9.29185 128.408 9.07421C127.717 8.57331 127.492 7.97567 127.416 7.12241C127.34 6.26914 127.686 5.29496 128.632 4.95988C128.462 4.61484 128.351 4.24341 128.304 3.86134Z" fill="#434D56"/>
<path d="M136.457 20.9161C136.457 20.9161 139.545 20.1354 140.602 19.4998C141.227 19.1336 141.727 18.5869 142.036 17.9314C141.902 18.578 141.64 19.1912 141.265 19.7347C140.519 20.7952 136.491 21.7486 136.491 21.7486L136.457 20.9161Z" fill="#F28F8F"/>
<path d="M136.629 13.0815C136.641 13.2123 136.691 13.3369 136.773 13.4396C136.855 13.5424 136.965 13.6188 137.09 13.6594C137.215 13.7 137.349 13.7029 137.476 13.6679C137.602 13.6329 137.716 13.5615 137.802 13.4625C137.888 13.3634 137.944 13.2412 137.961 13.111C137.979 12.9808 137.957 12.8484 137.9 12.7301C137.843 12.6118 137.752 12.513 137.639 12.4459C137.526 12.3788 137.396 12.3463 137.265 12.3526C137.085 12.3667 136.917 12.451 136.798 12.5873C136.68 12.7235 136.619 12.901 136.629 13.0815Z" fill="#434D56"/>
<path d="M135.597 18.0802C135.612 18.2488 135.677 18.4089 135.783 18.5408C135.89 18.6728 136.032 18.7706 136.193 18.8222C136.354 18.8738 136.527 18.8768 136.69 18.831C136.853 18.7852 136.999 18.6925 137.11 18.5644C137.22 18.4364 137.291 18.2786 137.313 18.1107C137.335 17.9429 137.307 17.7723 137.232 17.6202C137.158 17.4682 137.041 17.3413 136.895 17.2554C136.749 17.1695 136.581 17.1284 136.412 17.1371C136.179 17.1557 135.963 17.265 135.811 17.4415C135.658 17.618 135.581 17.8474 135.597 18.0802Z" fill="#F28F8F"/>
<path d="M137.186 10.7808L138.609 11.4717C138.698 11.2766 138.708 11.055 138.638 10.8525C138.568 10.65 138.423 10.4821 138.232 10.3836C138.138 10.3384 138.035 10.3129 137.931 10.3085C137.826 10.3042 137.722 10.3211 137.624 10.3582C137.526 10.3954 137.437 10.452 137.361 10.5246C137.286 10.5972 137.226 10.6844 137.186 10.7808Z" fill="#434D56"/>
<path d="M130.995 11.3783L132.208 10.3419C132.145 10.2592 132.065 10.1904 131.974 10.1395C131.883 10.0887 131.783 10.0569 131.68 10.0463C131.576 10.0356 131.471 10.0462 131.372 10.0774C131.273 10.1087 131.181 10.1599 131.102 10.2279C130.941 10.3695 130.839 10.5677 130.819 10.7817C130.799 10.9957 130.862 11.2093 130.995 11.3783Z" fill="#434D56"/>
<path d="M131.358 12.9466C131.366 13.0744 131.412 13.1969 131.49 13.2986C131.568 13.4004 131.674 13.4769 131.795 13.5185C131.916 13.5601 132.047 13.565 132.171 13.5326C132.295 13.5001 132.406 13.4318 132.491 13.3361C132.576 13.2404 132.631 13.1217 132.649 12.9949C132.667 12.8681 132.647 12.7389 132.592 12.6234C132.536 12.508 132.448 12.4115 132.338 12.346C132.228 12.2806 132.101 12.2492 131.973 12.2557C131.8 12.2673 131.639 12.3462 131.524 12.4754C131.409 12.6046 131.349 12.7739 131.358 12.9466Z" fill="#434D56"/>
<path d="M134.564 12.1797L134.543 16.2664L132.381 15.6446L134.564 12.1797Z" fill="#F28F8F"/>
<path d="M129.137 17.8968C129.157 17.8924 129.175 17.884 129.192 17.8721C129.209 17.8603 129.223 17.8452 129.233 17.8277C129.246 17.8107 129.254 17.7913 129.259 17.7708C129.264 17.7502 129.264 17.729 129.26 17.7083C129.256 17.6877 129.248 17.668 129.236 17.6505C129.225 17.633 129.21 17.6181 129.192 17.6067L127.313 16.3561C127.295 16.3445 127.276 16.3364 127.255 16.3323C127.235 16.3283 127.213 16.3284 127.193 16.3325C127.172 16.3367 127.153 16.3449 127.135 16.3567C127.118 16.3684 127.103 16.3835 127.092 16.401C127.079 16.4183 127.071 16.4379 127.067 16.4585C127.062 16.4792 127.062 16.5005 127.067 16.5212C127.071 16.5419 127.079 16.5615 127.091 16.5789C127.103 16.5962 127.119 16.6109 127.137 16.6221L129.012 17.8726C129.03 17.8856 129.05 17.8945 129.072 17.8987C129.093 17.9028 129.115 17.9022 129.137 17.8968Z" fill="#E0E0E0"/>
<path d="M128.936 18.7054C128.966 18.6981 128.992 18.683 129.014 18.6617C129.035 18.6404 129.05 18.6137 129.057 18.5845C129.067 18.5428 129.059 18.4992 129.037 18.463C129.014 18.4268 128.978 18.4009 128.936 18.391L126.739 17.8832C126.719 17.8781 126.698 17.8771 126.677 17.8802C126.656 17.8833 126.636 17.8906 126.618 17.9015C126.6 17.9124 126.584 17.9268 126.572 17.9438C126.56 17.9609 126.551 17.9802 126.546 18.0007C126.537 18.0424 126.544 18.086 126.567 18.1222C126.589 18.1584 126.625 18.1843 126.667 18.1941L128.864 18.7054C128.888 18.7089 128.912 18.7089 128.936 18.7054Z" fill="#E0E0E0"/>
<path d="M126.895 20.1667H126.915L129.033 19.3929C129.073 19.3782 129.105 19.3484 129.123 19.3098C129.141 19.2713 129.143 19.2272 129.128 19.1874C129.113 19.1475 129.083 19.1151 129.045 19.0973C129.006 19.0795 128.962 19.0777 128.922 19.0924L126.805 19.8662C126.785 19.8735 126.767 19.8846 126.751 19.8991C126.736 19.9135 126.723 19.9309 126.715 19.9502C126.706 19.9695 126.701 19.9903 126.701 20.0115C126.7 20.0327 126.704 20.0537 126.712 20.0734C126.726 20.1082 126.752 20.1366 126.786 20.1537C126.819 20.1707 126.858 20.1754 126.895 20.1667Z" fill="#E0E0E0"/>
<path d="M108.98 36.7379C109.023 36.8255 109.092 36.8985 109.176 36.9476C109.261 36.9968 109.358 37.0201 109.456 37.0146C109.554 37.0091 109.648 36.975 109.726 36.9166C109.805 36.8582 109.865 36.7781 109.898 36.6861L111.474 32.7997C111.499 32.7374 111.512 32.6706 111.511 32.6033C111.51 32.5359 111.496 32.4694 111.469 32.4078C111.442 32.3462 111.402 32.2906 111.353 32.2445C111.304 32.1984 111.246 32.1626 111.183 32.1394C111.12 32.1162 111.053 32.1059 110.985 32.1093C110.918 32.1126 110.852 32.1295 110.792 32.1589C110.731 32.1883 110.677 32.2296 110.633 32.2803C110.588 32.3311 110.555 32.3903 110.534 32.4543L108.955 36.3406C108.932 36.405 108.922 36.4734 108.926 36.5418C108.93 36.6101 108.949 36.6768 108.98 36.7379Z" fill="#E0E0E0"/>
<path d="M106.385 36.7173C106.436 36.8191 106.519 36.9008 106.622 36.949C106.725 36.9972 106.841 37.0091 106.951 36.9826C107.062 36.9561 107.16 36.8928 107.23 36.8032C107.299 36.7135 107.337 36.6029 107.335 36.4893L107.283 31.6529C107.273 31.5277 107.216 31.411 107.123 31.3259C107.031 31.2408 106.91 31.1936 106.784 31.1936C106.659 31.1936 106.538 31.2408 106.445 31.3259C106.353 31.411 106.296 31.5277 106.285 31.6529L106.333 36.4893C106.333 36.5683 106.35 36.6464 106.385 36.7173Z" fill="#E0E0E0"/>
<path d="M101.988 34.0261L102.019 34.0849L104.399 37.5394C104.473 37.6488 104.587 37.7246 104.716 37.7505C104.845 37.7764 104.98 37.7502 105.09 37.6776C105.197 37.6021 105.271 37.4881 105.296 37.3593C105.321 37.2304 105.296 37.0969 105.224 36.9867L102.844 33.5321C102.775 33.425 102.667 33.3486 102.543 33.3187C102.419 33.2889 102.288 33.3079 102.178 33.3718C102.067 33.4357 101.985 33.5396 101.949 33.662C101.913 33.7845 101.926 33.9161 101.984 34.0296L101.988 34.0261Z" fill="#E0E0E0"/>
</svg>
