<svg width="19" height="19" viewBox="0 0 19 19" fill="none" xmlns="http://www.w3.org/2000/svg">
<path d="M17.3942 0.894043H2.39423C1.9964 0.894043 1.61487 1.05208 1.33357 1.33338C1.05226 1.61469 0.894226 1.99622 0.894226 2.39404V17.394C0.894226 17.7919 1.05226 18.1734 1.33357 18.4547C1.61487 18.736 1.9964 18.894 2.39423 18.894H17.3942C17.7921 18.894 18.1736 18.736 18.4549 18.4547C18.7362 18.1734 18.8942 17.7919 18.8942 17.394V2.39404C18.8942 1.99622 18.7362 1.61469 18.4549 1.33338C18.1736 1.05208 17.7921 0.894043 17.3942 0.894043ZM2.39423 2.39404H17.3942V9.64842L15.0795 7.33279C14.7983 7.0517 14.4169 6.8938 14.0192 6.8938C13.6216 6.8938 13.2402 7.0517 12.9589 7.33279L2.89766 17.394H2.39423V2.39404ZM17.3942 17.394H5.01923L14.0192 8.39404L17.3942 11.769V17.394ZM6.89423 9.14404C7.33923 9.14404 7.77425 9.01208 8.14426 8.76485C8.51427 8.51762 8.80266 8.16621 8.97296 7.75508C9.14325 7.34395 9.18781 6.89155 9.10099 6.45509C9.01418 6.01863 8.79989 5.61772 8.48522 5.30305C8.17055 4.98838 7.76964 4.77409 7.33318 4.68728C6.89672 4.60046 6.44432 4.64502 6.03319 4.81531C5.62206 4.98561 5.27065 5.274 5.02342 5.64401C4.77619 6.01402 4.64423 6.44904 4.64423 6.89404C4.64423 7.49078 4.88128 8.06308 5.30324 8.48503C5.72519 8.90699 6.29749 9.14404 6.89423 9.14404ZM6.89423 6.14404C7.04256 6.14404 7.18757 6.18803 7.3109 6.27044C7.43424 6.35285 7.53037 6.46999 7.58714 6.60703C7.6439 6.74408 7.65875 6.89488 7.62982 7.04036C7.60088 7.18585 7.52945 7.31948 7.42456 7.42437C7.31967 7.52926 7.18603 7.60069 7.04054 7.62963C6.89506 7.65857 6.74426 7.64372 6.60721 7.58695C6.47017 7.53019 6.35304 7.43406 6.27062 7.31072C6.18821 7.18738 6.14423 7.04238 6.14423 6.89404C6.14423 6.69513 6.22324 6.50437 6.3639 6.36371C6.50455 6.22306 6.69531 6.14404 6.89423 6.14404Z" fill="#F9650B"/>
</svg>
