<svg width="18" height="21" viewBox="0 0 18 21" fill="none" xmlns="http://www.w3.org/2000/svg">
<path d="M17.7937 14.9944C17.2734 14.0981 16.5 11.5622 16.5 8.25C16.5 6.26088 15.7098 4.35322 14.3033 2.9467C12.8968 1.54018 10.9891 0.75 9 0.75C7.01087 0.75 5.10322 1.54018 3.6967 2.9467C2.29017 4.35322 1.5 6.26088 1.5 8.25C1.5 11.5631 0.725622 14.0981 0.205309 14.9944C0.0724379 15.2222 0.00199771 15.4811 0.00109222 15.7449C0.000186718 16.0086 0.0688481 16.268 0.200152 16.4967C0.331456 16.7255 0.520759 16.9156 0.74897 17.0478C0.977182 17.1801 1.23623 17.2498 1.5 17.25H5.32593C5.49897 18.0967 5.95914 18.8577 6.62862 19.4042C7.2981 19.9507 8.13579 20.2492 9 20.2492C9.86421 20.2492 10.7019 19.9507 11.3714 19.4042C12.0408 18.8577 12.501 18.0967 12.6741 17.25H16.5C16.7637 17.2496 17.0226 17.1798 17.2507 17.0475C17.4788 16.9151 17.6679 16.725 17.7991 16.4963C17.9303 16.2676 17.9989 16.0083 17.998 15.7446C17.997 15.4809 17.9266 15.2222 17.7937 14.9944ZM9 18.75C8.53483 18.7499 8.08114 18.6055 7.70137 18.3369C7.3216 18.0683 7.03443 17.6886 6.87937 17.25H11.1206C10.9656 17.6886 10.6784 18.0683 10.2986 18.3369C9.91886 18.6055 9.46517 18.7499 9 18.75ZM1.5 15.75C2.22187 14.5087 3 11.6325 3 8.25C3 6.6587 3.63214 5.13258 4.75736 4.00736C5.88257 2.88214 7.4087 2.25 9 2.25C10.5913 2.25 12.1174 2.88214 13.2426 4.00736C14.3679 5.13258 15 6.6587 15 8.25C15 11.6297 15.7762 14.5059 16.5 15.75H1.5Z" fill="black"/>
</svg>
