<svg width="186" height="155" viewBox="0 0 186 155" fill="none" xmlns="http://www.w3.org/2000/svg">
<mask id="mask0_463_4" style="mask-type:luminance" maskUnits="userSpaceOnUse" x="33" y="0" width="122" height="104">
<path d="M33.9104 0H154.702V103.288H33.9104V0Z" fill="white"/>
</mask>
<g mask="url(#mask0_463_4)">
<path fill-rule="evenodd" clip-rule="evenodd" d="M153.698 57.5156L98.144 2.55193C97.6454 2.0599 97.0681 1.67283 96.412 1.40385C95.7625 1.13487 95.0802 1.00366 94.3717 1.00366C93.6697 1.00366 92.9874 1.13487 92.3314 1.40385C91.6819 1.67283 91.1046 2.0599 90.5994 2.55193L69.3566 23.5323V19.3795C69.3566 19.0187 69.2845 18.6776 69.1467 18.3495C69.0155 18.0215 68.8187 17.7329 68.5694 17.4836C68.3201 17.2277 68.0248 17.0375 67.6968 16.8997C67.3688 16.7619 67.0277 16.6963 66.6734 16.6963H56.1635C55.8093 16.6963 55.4681 16.7619 55.1401 16.8997C54.8121 17.0375 54.5168 17.2277 54.2675 17.4836C54.0182 17.7329 53.8214 18.0215 53.6837 18.3495C53.5524 18.6776 53.4803 19.0187 53.4803 19.3795V39.284L35.0388 57.5156C34.5599 57.9879 34.2515 58.5521 34.1203 59.2147C33.9891 59.8708 34.0482 60.5137 34.304 61.1369C34.5599 61.7602 34.9666 62.2588 35.5243 62.6327C36.0819 63.0067 36.6986 63.1969 37.3678 63.1969H53.3491V95.691C53.3491 96.1764 53.395 96.6553 53.4934 97.1343C53.5853 97.6066 53.723 98.0658 53.9133 98.5185C54.097 98.9646 54.3266 99.3911 54.5956 99.7912C54.8645 100.198 55.1663 100.572 55.514 100.913C55.8552 101.254 56.2291 101.563 56.6293 101.832C57.0361 102.101 57.4625 102.33 57.9086 102.514C58.3547 102.698 58.8205 102.842 59.2929 102.934C59.7718 103.026 60.2507 103.078 60.7362 103.078H128.001C128.486 103.078 128.965 103.026 129.437 102.934C129.916 102.842 130.376 102.698 130.828 102.514C131.274 102.33 131.701 102.101 132.101 101.832C132.508 101.563 132.882 101.254 133.223 100.913C133.564 100.572 133.872 100.198 134.141 99.7912C134.41 99.3911 134.64 98.9646 134.824 98.5185C135.007 98.0658 135.152 97.6066 135.243 97.1343C135.335 96.6553 135.388 96.1764 135.388 95.691V63.1969H151.363C152.038 63.1969 152.648 63.0067 153.206 62.6327C153.77 62.2588 154.177 61.7602 154.426 61.1369C154.682 60.5137 154.748 59.8708 154.61 59.2147C154.479 58.5521 154.17 57.9879 153.698 57.5156ZM106.082 89.9374C106.003 86.1323 105.964 83.7181 105.964 83.6131C106.128 82.4191 106.633 81.3957 107.493 80.5428C108.293 79.5391 109.113 78.5484 109.986 77.6103C111.35 76.1998 112.42 74.5925 113.174 72.7818C113.935 70.9711 114.335 69.0882 114.381 67.1267C114.519 62.0226 113.627 57.1088 111.698 52.3787C110.95 50.1744 109.605 48.4162 107.676 47.1107C106.62 46.6055 105.498 46.3496 104.324 46.3496C103.15 46.3496 102.034 46.6055 100.978 47.1107C99.0428 48.4162 97.7044 50.1744 96.9565 52.3787C95.0278 57.1088 94.1355 62.0226 94.2733 67.1267C94.3192 69.0882 94.7194 70.9711 95.4739 72.7818C96.2349 74.5925 97.2977 76.1998 98.6688 77.6103C99.5414 78.5484 100.361 79.5391 101.162 80.5428C102.015 81.3957 102.526 82.4191 102.69 83.6131C102.69 83.6131 102.69 86.6834 102.546 91.3348C99.7907 92.1417 96.9762 92.5222 94.1027 92.4763C91.2358 92.4304 88.4345 91.9515 85.7053 91.0527C85.6135 86.6047 85.561 83.7181 85.561 83.6131C85.5741 83.0424 85.7316 82.511 86.0268 82.0189C87.9884 79.9917 93.1055 78.2926 93.1055 74.6187L90.5338 46.9663C90.5207 46.7301 90.4092 46.5596 90.1992 46.4546C90.0418 46.389 89.8843 46.389 89.7269 46.4546C89.471 46.5596 89.3398 46.7498 89.3398 47.0319C89.1168 55.3703 88.9003 63.7283 88.6838 72.1126C88.6051 72.2373 88.5066 72.3357 88.382 72.4013C88.2508 72.4734 88.1196 72.5128 87.9752 72.5128C87.8244 72.5128 87.6931 72.4734 87.5619 72.4013C87.4373 72.3357 87.3389 72.2373 87.2602 72.1126C86.9584 63.7677 86.6566 55.4162 86.3614 47.0713C86.3614 46.7367 86.2039 46.5268 85.8825 46.4415C85.8037 46.4218 85.7184 46.4218 85.6397 46.4415C85.3117 46.5333 85.1542 46.7433 85.1608 47.0844C84.8918 55.4293 84.6163 63.7808 84.3407 72.1257C84.1636 72.3357 83.9406 72.4406 83.6716 72.4406C83.396 72.4406 83.173 72.3357 83.0024 72.1257C82.7465 63.7874 82.3529 55.4359 82.1036 47.0975C82.0971 46.8154 81.9659 46.6055 81.71 46.4809C81.605 46.4349 81.4935 46.4218 81.3754 46.4349C81.2573 46.4415 81.1524 46.4809 81.0539 46.5465C80.9555 46.6121 80.8768 46.6908 80.8243 46.7958C80.7653 46.9007 80.739 47.0057 80.7325 47.1238C80.4832 55.4556 80.2339 63.7874 79.9846 72.1257C79.486 72.6637 79.0727 72.6637 78.725 72.1257C78.5282 63.7677 78.3314 55.4162 78.1345 47.0582C78.1345 46.8614 78.0558 46.7039 77.9049 46.5858C77.754 46.4612 77.5835 46.4218 77.3932 46.4677C77.1308 46.553 76.993 46.7301 76.9668 47.0057C76.0745 56.2297 75.202 65.4603 74.3557 74.6974C74.3557 78.3844 79.4729 80.0573 81.4279 82.0977C81.7297 82.5897 81.8871 83.1211 81.9002 83.6918C81.9002 83.6918 81.9002 86.0011 81.7822 89.6028C80.8309 89.1305 79.9124 88.6056 79.0268 88.0349C78.1345 87.4576 77.2817 86.8343 76.4616 86.1651C75.6416 85.4894 74.8674 84.7743 74.1261 84.0199C73.3913 83.2589 72.6959 82.4585 72.0464 81.6253C71.3969 80.7856 70.7999 79.913 70.2489 79.0077C69.6978 78.1089 69.1992 77.1707 68.7531 76.2129C68.307 75.2551 67.9199 74.271 67.5853 73.2673C67.2442 72.2635 66.9686 71.2401 66.7456 70.2035C66.5291 69.167 66.3651 68.1238 66.2666 67.0742C66.1617 66.0179 66.1158 64.9617 66.1354 63.9055C66.1486 62.8427 66.2207 61.7864 66.3585 60.7368C66.4897 59.6871 66.6865 58.6505 66.9358 57.6205C67.1851 56.5905 67.4935 55.5802 67.8608 54.5896C68.2282 53.5924 68.6481 52.6215 69.1204 51.6767C69.5928 50.7255 70.1176 49.8136 70.695 48.9213C71.2723 48.0357 71.9021 47.1828 72.5713 46.3693C73.247 45.5493 73.9621 44.7751 74.7231 44.0338C75.4841 43.299 76.2845 42.6102 77.1242 41.9607C77.964 41.3112 78.8299 40.7142 79.7419 40.1697C80.6472 39.6186 81.5788 39.12 82.5366 38.6805C83.501 38.2343 84.4851 37.8473 85.4888 37.5127C86.4926 37.1781 87.516 36.9026 88.5526 36.6861C89.5891 36.4696 90.6322 36.3121 91.6885 36.2072C92.7381 36.1087 93.7944 36.0628 94.8572 36.0825C95.9134 36.1022 96.9697 36.1809 98.0193 36.3187C99.069 36.4499 100.106 36.6467 101.136 36.9026C102.166 37.1584 103.176 37.4668 104.166 37.8342C105.164 38.2015 106.128 38.6214 107.079 39.1003C108.024 39.5727 108.936 40.1041 109.822 40.6814C110.714 41.2587 111.56 41.8885 112.38 42.5643C113.194 43.24 113.968 43.9551 114.703 44.7161C115.437 45.4837 116.126 46.284 116.776 47.1238C117.419 47.9635 118.016 48.8361 118.56 49.7414C119.111 50.6468 119.603 51.5849 120.043 52.5427C120.482 53.5071 120.869 54.4912 121.204 55.4949C121.532 56.5053 121.808 57.5221 122.024 58.5587C122.241 59.5952 122.398 60.6449 122.496 61.7011C122.595 62.7508 122.634 63.8071 122.615 64.8699C122.588 65.9261 122.51 66.9823 122.372 68.032C122.234 69.0817 122.037 70.1182 121.781 71.1482C121.525 72.1717 121.211 73.182 120.843 74.1792C120.476 75.1698 120.049 76.1342 119.57 77.0789C119.092 78.0236 118.56 78.9421 117.983 79.8277C117.399 80.7134 116.769 81.5597 116.093 82.3732C115.418 83.1867 114.696 83.9608 113.935 84.6956C113.167 85.4304 112.367 86.1192 111.527 86.7622C110.688 87.4051 109.808 87.9955 108.903 88.5466C107.998 89.0911 107.06 89.5832 106.095 90.0227L106.082 89.9374Z" fill="#BDBDBD"/>
</g>
<path d="M16.4537 154.381L16.5849 149.605C16.5849 140.125 15.7189 133.539 13.9869 129.845C12.1631 125.961 9.93256 124.019 7.29524 124.019C4.89411 124.019 2.78164 125.542 0.944708 128.586L0 128.113C2.72916 123.882 5.70105 121.763 8.92224 121.763C16.598 121.763 20.4424 130.58 20.4424 148.215L26.3206 139.03C29.8895 133.453 31.674 129.97 31.674 128.586C31.674 128.113 31.1229 127.877 30.0207 127.877H28.5512L28.7611 126.749H36.6599L36.4237 127.877H34.9017L18.3956 153.935L16.4537 154.381Z" fill="#BDBDBD"/>
<path d="M50.8766 148.923L50.5879 150.34C46.7041 153.037 43.3845 154.381 40.6422 154.381C38.8906 154.381 37.4735 153.778 36.391 152.571C35.3217 151.351 34.7903 149.776 34.7903 147.847C34.7903 144.383 36.1089 141.142 38.7528 138.111C41.3901 135.067 44.2111 133.545 47.2027 133.545C48.3049 133.545 49.184 133.913 49.8531 134.648C50.5354 135.382 50.8766 136.34 50.8766 137.508C50.8766 139.857 49.6694 141.877 47.2552 143.57C44.854 145.249 41.9937 146.089 38.6741 146.089L38.6478 146.929C38.6478 150.498 39.9599 152.282 42.5841 152.282C44.8409 152.282 47.6029 151.167 50.8766 148.923ZM38.7003 144.961C41.4426 144.738 43.5879 144.029 45.1296 142.835C46.6647 141.648 47.4389 140.099 47.4389 138.19C47.4389 136.32 46.7631 135.382 45.4182 135.382C43.9487 135.382 42.5185 136.366 41.1408 138.321C39.7762 140.283 38.9627 142.494 38.7003 144.961Z" fill="#BDBDBD"/>
<path d="M56.2334 154.145L57.598 148.503L59.4087 139.424C59.6842 138.026 59.8285 137.108 59.8285 136.668C59.8285 135.92 59.4612 135.54 58.7264 135.54C57.5324 135.54 55.7151 136.878 53.2681 139.555L53.583 137.875C56.2596 134.989 58.6608 133.545 60.7995 133.545C62.5643 133.545 63.4499 134.464 63.4499 136.301C63.4499 136.931 63.3056 137.974 63.03 139.424L62.1378 143.963H62.4002C63.9354 140.834 65.6674 138.315 67.5961 136.406C69.5184 134.503 71.3094 133.545 72.9757 133.545C74.9832 133.545 75.9935 134.667 75.9935 136.904C75.9935 137.626 75.8886 138.499 75.6786 139.529L73.8942 148.503C73.6121 149.92 73.4743 150.839 73.4743 151.259C73.4743 152.033 73.8417 152.413 74.5765 152.413C75.7836 152.413 77.6074 151.068 80.061 148.372L79.6936 150.078C77.0301 152.951 74.629 154.381 72.4771 154.381C70.7255 154.381 69.8529 153.463 69.8529 151.626C69.8529 151.016 69.9907 149.973 70.2728 148.503L72.0573 139.502C72.2147 138.807 72.2934 138.216 72.2934 137.744C72.2934 136.747 71.926 136.248 71.1913 136.248C68.8426 136.248 65.6018 139.962 61.4555 147.375L60.1172 153.935L56.2334 154.145Z" fill="#BDBDBD"/>
<path d="M95.9611 143.963H95.6199C94.2029 147.047 92.5234 149.553 90.5815 151.495C88.6527 153.424 86.8551 154.381 85.1757 154.381C82.5646 154.381 81.2656 152.767 81.2656 149.527C81.2656 147.322 81.8954 145.013 83.155 142.599C84.4278 140.185 86.0745 138.164 88.0885 136.537C89.4334 135.435 90.7783 134.7 92.1298 134.333C93.4747 133.965 95.4231 133.781 97.9817 133.781C98.6968 131.354 99.4513 129.497 100.239 128.218C101.026 126.945 102.128 125.745 103.545 124.623C105.972 122.721 108.649 121.763 111.575 121.763C112.782 121.763 113.884 121.894 114.881 122.156L112.362 124.754C110.906 124.124 109.672 123.81 108.662 123.81C106.701 123.81 105.224 124.531 104.227 125.961C103.23 127.378 102.344 130.049 101.577 133.965L98.6902 148.503C98.3885 149.92 98.2441 150.826 98.2441 151.206C98.2441 152.013 98.5984 152.413 99.32 152.413C100.54 152.413 102.371 151.068 104.805 148.372L104.463 150.078C101.8 152.951 99.4053 154.381 97.2732 154.381C95.4887 154.381 94.5965 153.463 94.5965 151.626C94.5965 151.036 94.7408 149.992 95.0426 148.503L95.9611 143.963ZM97.4044 136.616C95.8955 135.933 94.3734 135.592 92.8383 135.592C90.6143 135.592 88.8364 137.003 87.5112 139.817C85.917 143.143 85.1232 146.135 85.1232 148.792C85.1232 150.721 85.6874 151.678 86.8289 151.678C87.8917 151.678 89.4137 150.576 91.395 148.372C93.3697 146.155 95.1017 143.616 96.5909 140.762L97.4044 136.616Z" fill="#BDBDBD"/>
<path d="M107.779 154.145L109.143 148.503L110.954 139.424C111.23 138.026 111.374 137.108 111.374 136.668C111.374 135.92 111.007 135.54 110.272 135.54C109.078 135.54 107.261 136.878 104.813 139.555L105.128 137.875C107.805 134.989 110.206 133.545 112.345 133.545C114.11 133.545 114.995 134.477 114.995 136.327C114.995 136.957 114.851 137.993 114.575 139.424L113.683 143.963H113.946C115.5 140.782 117.206 138.256 119.063 136.38C120.913 134.49 122.632 133.545 124.206 133.545C125.026 133.545 125.709 133.873 126.253 134.516C126.811 135.166 127.093 135.979 127.093 136.957C127.093 137.659 126.988 138.505 126.778 139.502L125.912 143.963H126.174C127.519 140.906 129.12 138.4 130.977 136.458C132.827 134.516 134.526 133.545 136.068 133.545C138.233 133.545 139.322 134.7 139.322 137.009C139.322 137.692 139.217 138.531 139.007 139.529L137.248 148.503C136.947 149.907 136.802 150.826 136.802 151.259C136.802 152.033 137.17 152.413 137.904 152.413C139.112 152.413 140.929 151.068 143.363 148.372L143.048 150.078C140.371 152.951 137.964 154.381 135.831 154.381C134.047 154.381 133.155 153.463 133.155 151.626C133.155 151.036 133.299 149.993 133.601 148.503L135.385 139.529C135.556 138.728 135.648 138.138 135.648 137.77C135.648 136.76 135.261 136.248 134.493 136.248C132.374 136.248 129.297 139.935 125.256 147.296L123.865 153.935L120.27 154.145L123.157 139.581C123.314 138.781 123.393 138.19 123.393 137.823C123.393 136.773 123.025 136.248 122.291 136.248C121.379 136.248 120.021 137.324 118.223 139.476C116.419 141.628 114.667 144.278 112.975 147.427L111.636 153.935L107.779 154.145Z" fill="#BDBDBD"/>
<path d="M159.275 143.963H158.933C157.549 147.047 155.876 149.553 153.921 151.495C151.979 153.423 150.156 154.381 148.463 154.381C145.872 154.381 144.579 152.774 144.579 149.553C144.579 145.984 146.003 142.494 148.857 139.082C151.796 135.553 155.378 133.781 159.616 133.781C161.361 133.781 163.191 133.853 165.1 133.991L163.788 139.423L162.004 148.503C161.722 149.92 161.584 150.838 161.584 151.258C161.584 152.032 161.938 152.413 162.66 152.413C163.88 152.413 165.704 151.068 168.118 148.372L167.803 150.077C165.126 152.951 162.719 154.381 160.587 154.381C158.802 154.381 157.91 153.463 157.91 151.626C157.91 151.016 158.054 149.972 158.356 148.503L159.275 143.963ZM160.718 136.615C159.176 135.933 157.654 135.592 156.152 135.592C153.928 135.592 152.15 137.002 150.825 139.817C149.25 143.143 148.463 146.135 148.463 148.792C148.463 150.72 149.021 151.678 150.142 151.678C151.205 151.678 152.727 150.576 154.708 148.372C156.683 146.154 158.415 143.622 159.904 140.788L160.718 136.615Z" fill="#BDBDBD"/>
<path d="M174.522 135.356H170.323L171.583 133.991H174.784L175.834 128.795L179.639 127.877L178.432 133.991H185.333L183.838 135.618C182.263 135.448 180.859 135.356 179.639 135.356H178.143L175.65 147.926C175.388 149.225 175.256 150.13 175.256 150.655C175.256 151.639 175.683 152.124 176.542 152.124C177.868 152.124 179.678 151.147 181.974 149.185L181.633 150.865C179.252 153.213 176.969 154.381 174.784 154.381C172.698 154.381 171.661 153.24 171.661 150.944C171.661 150.124 171.799 149.028 172.081 147.663L174.522 135.356Z" fill="#BDBDBD"/>
</svg>
