<svg width="16" height="20" viewBox="0 0 16 20" fill="none" xmlns="http://www.w3.org/2000/svg">
<path d="M13.755 11.9999C14.0503 12 14.3428 12.0583 14.6156 12.1715C14.8884 12.2846 15.1362 12.4504 15.345 12.6593C15.5537 12.8682 15.7193 13.1162 15.8322 13.3892C15.9451 13.6621 16.0031 13.9545 16.003 14.2499V15.1679C16.003 15.7409 15.824 16.2996 15.491 16.7659C13.945 18.9299 11.421 20.0009 8.001 20.0009C4.579 20.0009 2.056 18.9289 0.513998 16.7649C0.182124 16.2989 0.00384695 15.741 0.0039979 15.1689V14.2489C0.0039979 13.6524 0.240945 13.0804 0.662715 12.6586C1.08448 12.2368 1.65653 11.9999 2.253 11.9999H13.755ZM8 0.00488281C8.65661 0.0048828 9.30679 0.134211 9.91341 0.385485C10.52 0.636758 11.0712 1.00506 11.5355 1.46935C11.9998 1.93364 12.3681 2.48484 12.6194 3.09147C12.8707 3.69809 13 4.34827 13 5.00488C13 5.66149 12.8707 6.31167 12.6194 6.9183C12.3681 7.52493 11.9998 8.07612 11.5355 8.54042C11.0712 9.00471 10.52 9.37301 9.91341 9.62428C9.30679 9.87555 8.65661 10.0049 8 10.0049C6.67391 10.0049 5.40215 9.4781 4.46446 8.54042C3.52678 7.60273 3 6.33097 3 5.00488C3 3.6788 3.52678 2.40703 4.46446 1.46935C5.40215 0.531667 6.67391 0.00488281 8 0.00488281Z" fill="#999999"/>
</svg>
