<svg width="18" height="18" viewBox="0 0 18 18" fill="none" xmlns="http://www.w3.org/2000/svg">
<path d="M14.75 0C15.612 0 16.4386 0.34241 17.0481 0.951903C17.6576 1.5614 18 2.38805 18 3.25V14.75C18 15.612 17.6576 16.4386 17.0481 17.0481C16.4386 17.6576 15.612 18 14.75 18H3.25C2.38805 18 1.5614 17.6576 0.951903 17.0481C0.34241 16.4386 0 15.612 0 14.75V3.25C0 2.38805 0.34241 1.5614 0.951903 0.951903C1.5614 0.34241 2.38805 0 3.25 0H14.75ZM14.75 1.5H3.25C2.78587 1.5 2.34075 1.68437 2.01256 2.01256C1.68437 2.34075 1.5 2.78587 1.5 3.25V10H6C6.18124 10 6.35634 10.0656 6.49293 10.1848C6.62952 10.3039 6.71835 10.4684 6.743 10.648L6.75 10.75C6.75 11.3467 6.98705 11.919 7.40901 12.341C7.83097 12.7629 8.40326 13 9 13C9.59674 13 10.169 12.7629 10.591 12.341C11.0129 11.919 11.25 11.3467 11.25 10.75C11.25 10.5511 11.329 10.3603 11.4697 10.2197C11.6103 10.079 11.8011 10 12 10H16.5V3.25C16.5 2.81065 16.3347 2.38739 16.037 2.06429C15.7392 1.74119 15.3309 1.5419 14.893 1.506L14.75 1.5Z" fill="#999999"/>
</svg>
